<svg xmlns="http://www.w3.org/2000/svg" viewBox="0 0 8.66 8.25"><defs><style>.cls-1{fill:#2b3244;}</style></defs><g id="Layer_2" data-name="Layer 2"><g id="BACKGROUND"><path class="cls-1" d="M1.75,8.21l-.07,0a.14.14,0,0,1,0-.14l1-2.94L.09,3.28a.11.11,0,0,1,0-.13.13.13,0,0,1,.11-.08h3.1l1-2.95a.12.12,0,0,1,.22,0l1,2.95H8.5a.13.13,0,0,1,.11.08.11.11,0,0,1,0,.13L6.06,5.11,7,8.05a.14.14,0,0,1,0,.14.17.17,0,0,1-.14,0L4.33,6.36,1.82,8.19ZM.52,3.31,2.81,5a.12.12,0,0,1,0,.13L2,7.78,4.26,6.12a.12.12,0,0,1,.14,0L6.68,7.78,5.81,5.1a.12.12,0,0,1,0-.13L8.14,3.31H5.31a.13.13,0,0,1-.11-.08L4.33.54,3.46,3.23a.13.13,0,0,1-.11.08Z"/><path class="cls-1" d="M1.75,8.25l-.09,0A.16.16,0,0,1,1.6,8l.95-2.92L.07,3.32A.16.16,0,0,1,0,3.14.15.15,0,0,1,.16,3H3.23L4.18.11a.16.16,0,0,1,.3,0L5.43,3H8.5a.15.15,0,0,1,.15.11.16.16,0,0,1-.06.18L6.11,5.12,7.06,8A.16.16,0,0,1,7,8.22a.17.17,0,0,1-.19,0L4.33,6.42,1.85,8.22A.17.17,0,0,1,1.75,8.25ZM.16,3.12a.08.08,0,0,0-.07,0,.07.07,0,0,0,0,.08L2.63,5.07a0,0,0,0,1,0,0l-1,3a.07.07,0,0,0,0,.08.08.08,0,0,0,.09,0L4.3,6.33h.06l2.5,1.82a.08.08,0,0,0,.09,0,.07.07,0,0,0,0-.08L6,5.12a0,0,0,0,1,0,0L8.54,3.25a.07.07,0,0,0,0-.08.08.08,0,0,0-.07,0H5.4a0,0,0,0,1,0,0L4.4.14a.08.08,0,0,0-.14,0l-1,2.95a0,0,0,0,1,0,0ZM6.68,7.83h0L4.37,6.16a.06.06,0,0,0-.08,0L2,7.82H2s0,0,0-.05l.88-2.69a.07.07,0,0,0,0-.08L.49,3.34a0,0,0,0,1,0,0s0,0,0,0H3.35a.08.08,0,0,0,.07,0L4.29.53a0,0,0,0,1,.08,0l.87,2.68a.08.08,0,0,0,.07,0H8.14s0,0,0,0a0,0,0,0,1,0,0L5.88,5a.07.07,0,0,0,0,.08l.88,2.69s0,0,0,.05Zm-6-4.48L2.83,4.93a.16.16,0,0,1,.06.18L2.06,7.67,4.24,6.09a.15.15,0,0,1,.18,0L6.6,7.67,5.77,5.11a.16.16,0,0,1,.06-.18L8,3.35H5.31a.15.15,0,0,1-.15-.11L4.33.68,3.5,3.24a.15.15,0,0,1-.15.11Z"/></g></g></svg>