<svg xmlns="http://www.w3.org/2000/svg" viewBox="0 0 8.93 8.62"><defs><style>.cls-1{fill:#2b3244;}</style></defs><g id="Layer_2" data-name="Layer 2"><g id="BACKGROUND"><path class="cls-1" d="M8.77,4.58a.18.18,0,0,1-.09,0L4.46.32.24,4.54a.1.1,0,0,1-.16,0,.1.1,0,0,1,0-.16L4.38.07a.14.14,0,0,1,.17,0l4.3,4.31a.12.12,0,0,1,0,.16A.12.12,0,0,1,8.77,4.58Z"/><path class="cls-1" d="M8.77,4.62a.17.17,0,0,1-.12,0L4.46.38.27,4.57a.16.16,0,0,1-.22,0,.14.14,0,0,1,0-.22L4.35,0a.2.2,0,0,1,.23,0l4.3,4.31a.16.16,0,0,1-.11.27ZM4.46.28h0L8.71,4.51a.08.08,0,0,0,.11,0,.07.07,0,0,0,0-.1L4.51.11a.07.07,0,0,0-.1,0L.11,4.41a.07.07,0,0,0,0,.1.07.07,0,0,0,.1,0L4.43.29Z"/><path class="cls-1" d="M7.61,8.58H5.53a.11.11,0,0,1-.11-.12v-3H3.51v3a.12.12,0,0,1-.12.12H1.32a.12.12,0,0,1-.12-.12V3.4a.11.11,0,0,1,.12-.11.11.11,0,0,1,.11.11V8.34H3.28v-3a.11.11,0,0,1,.11-.12H5.53a.12.12,0,0,1,.12.12v3H7.49V3.4a.12.12,0,0,1,.24,0V8.46A.12.12,0,0,1,7.61,8.58Z"/><path class="cls-1" d="M7.61,8.62H5.53a.16.16,0,0,1-.16-.16V5.53H3.55V8.46a.16.16,0,0,1-.16.16H1.32a.16.16,0,0,1-.16-.16V3.4a.16.16,0,0,1,.16-.16.17.17,0,0,1,.16.16V8.3H3.23V5.37a.16.16,0,0,1,.16-.16H5.53a.16.16,0,0,1,.16.16V8.3H7.45V3.4a.16.16,0,0,1,.32,0V8.46A.16.16,0,0,1,7.61,8.62ZM3.51,5.44H5.42a0,0,0,0,1,0,0v3a.07.07,0,0,0,.07.07H7.61a.07.07,0,0,0,.07-.07V3.4a.07.07,0,0,0-.14,0V8.34a0,0,0,0,1,0,.05H5.65a0,0,0,0,1,0-.05v-3a.09.09,0,0,0-.08-.08H3.39a.08.08,0,0,0-.07.08v3a0,0,0,0,1,0,.05H1.43a0,0,0,0,1,0-.05V3.4a.07.07,0,0,0-.07-.07.08.08,0,0,0-.08.07V8.46a.08.08,0,0,0,.08.07H3.39a.08.08,0,0,0,.08-.07v-3A0,0,0,0,1,3.51,5.44Z"/></g></g></svg>