<svg xmlns="http://www.w3.org/2000/svg" viewBox="0 0 6.8 7.27"><defs><style>.cls-1{fill:#2b3244;}</style></defs><g id="Layer_2" data-name="Layer 2"><g id="BACKGROUND"><path class="cls-1" d="M3.59,7.27a.16.16,0,0,1-.11,0,.17.17,0,0,1,0-.25L6.39,3.73,3.46.29a.19.19,0,0,1,0-.25.19.19,0,0,1,.25,0l3,3.56a.18.18,0,0,1,0,.23l-3,3.36A.16.16,0,0,1,3.59,7.27Z"/><path class="cls-1" d="M.18,7.27a.17.17,0,0,1-.12,0A.17.17,0,0,1,.05,7L3,3.73,0,.29A.19.19,0,0,1,.06,0a.18.18,0,0,1,.25,0l3,3.56a.17.17,0,0,1,0,.23l-3,3.36A.19.19,0,0,1,.18,7.27Z"/></g></g></svg>