<svg xmlns="http://www.w3.org/2000/svg" viewBox="0 0 8.82 7.91"><defs><style>.cls-1{fill:#2b3244;}</style></defs><g id="Layer_2" data-name="Layer 2"><g id="BACKGROUND"><path class="cls-1" d="M.16.28H2.28l1,5.09V7.58a.12.12,0,0,0,.12.11H6.5a.11.11,0,0,0,.11-.11.11.11,0,0,0-.11-.12H3.55v-2H6.73a.13.13,0,0,0,.1-.06l1.9-3a.13.13,0,0,0,0-.12.13.13,0,0,0-.1-.06H2.91L2.49.14A.11.11,0,0,0,2.38,0H.16A.13.13,0,0,0,0,.16.12.12,0,0,0,.16.28ZM6.82,2.44h1.6L8,3.17H6.82Zm0,1h1l-.59.94H6.82Zm0,1.17h.27L6.82,5ZM3.35,4.36l-.2-1H4.77v.94H3.41S3.36,4.34,3.35,4.36ZM5,2.44H6.58v.73H5Zm0,1H6.58v.94H5ZM5,5.22V4.57H6.58v.67H5S5,5.23,5,5.22Zm-1.48,0-.14-.67H4.77v.65s0,0,0,0Zm1.24-2.8v.73H3.11L3,2.44Z"/><path class="cls-1" d="M6.5,7.74H3.43a.16.16,0,0,1-.16-.16V5.37l-1-5H.16A.16.16,0,0,1,0,.16.16.16,0,0,1,.16,0H2.38a.16.16,0,0,1,.16.13l.41,2H8.63a.16.16,0,0,1,.14.08.17.17,0,0,1,0,.17l-1.9,3a.16.16,0,0,1-.14.08H3.59v1.9H6.5a.16.16,0,0,1,0,.32ZM.16.09A.07.07,0,0,0,.09.16.07.07,0,0,0,.16.23H2.28s0,0,.05,0l1,5.09V7.58a.07.07,0,0,0,.07.07H6.5a.07.07,0,0,0,.07-.07A.08.08,0,0,0,6.5,7.5H3.55s0,0,0,0v-2a0,0,0,0,1,0-.05H6.73a.09.09,0,0,0,.07,0l1.89-3a0,0,0,0,0,0-.07.05.05,0,0,0-.06,0H2.91a0,0,0,0,1,0,0L2.45.15A.07.07,0,0,0,2.38.09Zm6.43,5.2H5l0,0s0,0,0,0H5V4.57a0,0,0,0,1,0,0H6.59a0,0,0,0,1,0,0v.67A0,0,0,0,1,6.59,5.29ZM5.05,5.2H6.54V4.61H5.05Zm-.27.09H3.53a.07.07,0,0,1,0,0l-.13-.67s0,0,0,0l0,0H4.77a0,0,0,0,1,.05,0v.65h0s0,0,0,0ZM3.56,5.2H4.73V4.61H3.44Zm3.26-.15h0a.07.07,0,0,1,0,0V4.57a0,0,0,0,1,.05,0h.27l0,0s0,0,0,0L6.86,5Zm0-.44v.24L7,4.61ZM3.35,4.4h0l0,0-.19-1a.06.06,0,0,1,0,0H4.77a0,0,0,0,1,.05,0v.94a0,0,0,0,1-.05,0H3.35Zm-.14-1,.17.85H4.73V3.45Zm4,.93H6.82a0,0,0,0,1-.05,0V3.4a0,0,0,0,1,.05,0h1l0,0v.05l-.59.93Zm-.37-.09h.35l.53-.84H6.86Zm-.27.09H5a0,0,0,0,1,0,0V3.4a0,0,0,0,1,0,0H6.59a0,0,0,0,1,0,0v.94A0,0,0,0,1,6.59,4.38ZM5.05,4.29H6.54V3.45H5.05ZM8,3.22H6.82a0,0,0,0,1-.05,0V2.44a0,0,0,0,1,.05,0h1.6s0,0,0,0a0,0,0,0,1,0,0L8,3.19S8,3.22,8,3.22Zm-1.1-.1H7.94l.4-.64H6.86Zm-.27.09H5a0,0,0,0,1,0,0V2.44a0,0,0,0,1,0,0H6.59a0,0,0,0,1,0,0v.73A0,0,0,0,1,6.59,3.21ZM5.05,3.12H6.54V2.48H5.05Zm-.28.09H3.11a.05.05,0,0,1,0,0l-.14-.73s0,0,0,0,0,0,0,0H4.77a0,0,0,0,1,.05,0v.73A0,0,0,0,1,4.77,3.21ZM3.14,3.12H4.73V2.48H3Z"/><path class="cls-1" d="M7.58,7.87a.11.11,0,0,0,.11-.12v-1h1a.12.12,0,0,0,.12-.12.12.12,0,0,0-.12-.11h-1V5.62a.12.12,0,0,0-.11-.12.12.12,0,0,0-.12.12v.94h-1a.11.11,0,0,0-.12.11.12.12,0,0,0,.12.12h1v1A.12.12,0,0,0,7.58,7.87Z"/><path class="cls-1" d="M7.58,7.91a.16.16,0,0,1-.16-.16V6.83H6.5a.16.16,0,0,1,0-.32h.92V5.62a.16.16,0,1,1,.32,0v.89h.92a.16.16,0,0,1,0,.32H7.74v.92A.16.16,0,0,1,7.58,7.91ZM6.5,6.6a.08.08,0,0,0-.08.07.09.09,0,0,0,.08.08h1a0,0,0,0,1,0,0v1a.09.09,0,0,0,.08.08.08.08,0,0,0,.07-.08v-1a0,0,0,0,1,0,0h1a.08.08,0,0,0,.07-.08.07.07,0,0,0-.07-.07h-1a0,0,0,0,1,0,0V5.62a.07.07,0,0,0-.07-.07.08.08,0,0,0-.08.07v.94a0,0,0,0,1,0,0Z"/></g></g></svg>