<svg xmlns="http://www.w3.org/2000/svg" viewBox="0 0 8.57 8.49"><defs><style>.cls-1{fill:#2b3244;}</style></defs><g id="Layer_2" data-name="Layer 2"><g id="BACKGROUND"><path class="cls-1" d="M1.17,5.41A1.13,1.13,0,1,1,2.3,4.29,1.13,1.13,0,0,1,1.17,5.41Zm0-2a.9.9,0,1,0,.89.9A.89.89,0,0,0,1.17,3.39Z"/><path class="cls-1" d="M1.17,5.46a1.17,1.17,0,0,1,0-2.34,1.17,1.17,0,0,1,0,2.34Zm0-2.26A1.09,1.09,0,1,0,2.25,4.29,1.08,1.08,0,0,0,1.17,3.2Zm0,2a.94.94,0,1,1,.94-.93A.94.94,0,0,1,1.17,5.22Zm0-1.78A.85.85,0,1,0,2,4.29.85.85,0,0,0,1.17,3.44Z"/><path class="cls-1" d="M7.4,2.3A1.13,1.13,0,1,1,8.52,1.17,1.13,1.13,0,0,1,7.4,2.3Zm0-2a.89.89,0,1,0,.89.89A.89.89,0,0,0,7.4.28Z"/><path class="cls-1" d="M7.39,2.34A1.17,1.17,0,1,1,8.57,1.17,1.17,1.17,0,0,1,7.39,2.34Zm0-2.25A1.08,1.08,0,1,0,8.48,1.17,1.08,1.08,0,0,0,7.39.09Zm0,2a.94.94,0,1,1,.94-.94A.94.94,0,0,1,7.39,2.11Zm0-1.79a.85.85,0,1,0,.85.85A.85.85,0,0,0,7.39.32Z"/><path class="cls-1" d="M7.4,8.45A1.13,1.13,0,1,1,8.52,7.32,1.13,1.13,0,0,1,7.4,8.45Zm0-2a.9.9,0,1,0,.89.89A.89.89,0,0,0,7.4,6.43Z"/><path class="cls-1" d="M7.39,8.49A1.17,1.17,0,1,1,8.57,7.32,1.17,1.17,0,0,1,7.39,8.49Zm0-2.25A1.09,1.09,0,1,0,8.48,7.32,1.09,1.09,0,0,0,7.39,6.24Zm0,2a.94.94,0,1,1,.94-.94A.94.94,0,0,1,7.39,8.26Zm0-1.79a.85.85,0,1,0,.85.85A.85.85,0,0,0,7.39,6.47Z"/><path class="cls-1" d="M2.07,4A.11.11,0,0,1,2,3.89.12.12,0,0,1,2,3.73L6.44,1.52a.12.12,0,0,1,.16.05.12.12,0,0,1-.06.16L2.13,3.94Z"/><path class="cls-1" d="M2.07,4a.17.17,0,0,1-.14-.09A.16.16,0,0,1,2,3.69L6.42,1.48a.17.17,0,0,1,.12,0,.16.16,0,0,1,.1.08.17.17,0,0,1-.08.22L2.15,4ZM6.49,1.55h0L2,3.77a.08.08,0,0,0,0,0,.13.13,0,0,0,0,.06.08.08,0,0,0,.1,0L6.52,1.69s0,0,0,0a.06.06,0,0,0,0-.06s0,0,0,0Z"/><path class="cls-1" d="M6.49,7h0L2.06,4.85A.12.12,0,0,1,2,4.7a.12.12,0,0,1,.16-.06L6.54,6.78a.1.1,0,0,1,0,.15A.12.12,0,0,1,6.49,7Z"/><path class="cls-1" d="M6.49,7H6.42L2,4.89A.24.24,0,0,1,2,4.8a.17.17,0,0,1,0-.12.16.16,0,0,1,.21-.08L6.56,6.74a.14.14,0,0,1,.08.09.17.17,0,0,1,0,.12A.14.14,0,0,1,6.49,7ZM2.11,4.67a.08.08,0,0,0-.06,0,.06.06,0,0,0,0,.06s0,0,0,0L6.46,7a.07.07,0,0,0,.09,0,.07.07,0,0,0,0,0s0,0,0,0L2.15,4.68Z"/></g></g></svg>