<svg xmlns="http://www.w3.org/2000/svg" viewBox="0 0 6.8 7.27"><defs><style>.cls-1{fill:#2b3244;}</style></defs><g id="Layer_2" data-name="Layer 2"><g id="BACKGROUND"><path class="cls-1" d="M3.2,7.27a.17.17,0,0,1-.13-.07L0,3.65a.17.17,0,0,1,0-.23l3-3.36a.18.18,0,0,1,.25,0,.16.16,0,0,1,0,.24L.41,3.54,3.34,7a.17.17,0,0,1,0,.24A.17.17,0,0,1,3.2,7.27Z"/><path class="cls-1" d="M6.62,7.27a.16.16,0,0,1-.13-.07l-3-3.55a.18.18,0,0,1,0-.23l3-3.36a.18.18,0,0,1,.25,0,.16.16,0,0,1,0,.24L3.83,3.54,6.76,7a.17.17,0,0,1,0,.24A.21.21,0,0,1,6.62,7.27Z"/></g></g></svg>