<svg xmlns="http://www.w3.org/2000/svg" viewBox="0 0 9.54 8.73"><defs><style>.cls-1{fill:#2b3244;}</style></defs><g id="Layer_2" data-name="Layer 2"><g id="BACKGROUND"><path class="cls-1" d="M9.38,8.69H2.94a.11.11,0,0,1-.11-.12V5.48a.11.11,0,0,1,.11-.12.12.12,0,0,1,.12.12v3h6.2V.28H3.06V3.43a.12.12,0,0,1-.12.12.11.11,0,0,1-.11-.12V.16A.12.12,0,0,1,2.94,0H9.38A.13.13,0,0,1,9.5.16V8.57A.12.12,0,0,1,9.38,8.69Z"/><path class="cls-1" d="M9.38,8.73H2.94a.16.16,0,0,1-.16-.16V5.48a.16.16,0,1,1,.32,0V8.41H9.22V.32H3.1V3.43a.16.16,0,0,1-.32,0V.16A.16.16,0,0,1,2.94,0H9.38a.16.16,0,0,1,.16.16V8.57A.16.16,0,0,1,9.38,8.73ZM2.94,5.4a.07.07,0,0,0-.07.08V8.57a.07.07,0,0,0,.07.07H9.38a.07.07,0,0,0,.07-.07V.16A.07.07,0,0,0,9.38.09H2.94a.07.07,0,0,0-.07.07V3.43a.07.07,0,0,0,.14,0V.28A0,0,0,0,1,3.06.23h6.2a0,0,0,0,1,.05.05V8.45a0,0,0,0,1-.05.05H3.06A0,0,0,0,1,3,8.45v-3A.07.07,0,0,0,2.94,5.4Z"/><path class="cls-1" d="M5.31,4.57h-5a.12.12,0,0,1-.12-.12.12.12,0,0,1,.12-.11h5a.11.11,0,0,1,.12.11A.12.12,0,0,1,5.31,4.57Z"/><path class="cls-1" d="M5.31,4.61h-5a.16.16,0,1,1,0-.32h5a.16.16,0,0,1,0,.32Zm-5-.23a.07.07,0,0,0-.07.07.08.08,0,0,0,.07.08h5a.09.09,0,0,0,.08-.08.08.08,0,0,0-.08-.07Z"/><path class="cls-1" d="M1.38,5.44a.09.09,0,0,1-.07,0L.09,4.55a.12.12,0,0,1,0-.1.12.12,0,0,1,0-.09l1.22-.87a.11.11,0,0,1,.16,0,.11.11,0,0,1,0,.16L.36,4.45l1.08.77a.12.12,0,0,1,0,.17A.12.12,0,0,1,1.38,5.44Z"/><path class="cls-1" d="M1.38,5.48a.17.17,0,0,1-.1,0L.07,4.58a.16.16,0,0,1,0-.26l1.21-.86a.16.16,0,0,1,.23,0,.17.17,0,0,1,0,.12.15.15,0,0,1-.06.11l-1,.73,1,.74a.13.13,0,0,1,.06.1.16.16,0,0,1,0,.12A.17.17,0,0,1,1.38,5.48Zm0-2,0,0L.12,4.39a.09.09,0,0,0,0,.06.06.06,0,0,0,0,.06l1.21.87a.09.09,0,0,0,.11,0,.07.07,0,0,0,0-.05l0,0L.34,4.49s0,0,0,0,0,0,0,0l1.08-.77,0,0a.13.13,0,0,0,0-.06A.09.09,0,0,0,1.38,3.51Z"/></g></g></svg>