<?xml version="1.0" encoding="UTF-8"?>
<svg id="Layer_2" data-name="Layer 2" xmlns="http://www.w3.org/2000/svg" viewBox="0 0 659.19 535.87">
  <defs>
    <style>
      .cls-1 {
        fill: #24456d;
      }

      .cls-2 {
        fill: #82b6ff;
      }

      .cls-3 {
        fill: #1a5a99;
      }

      .cls-4 {
        fill: #e8f3f7;
      }

      .cls-5 {
        fill: #27c43d;
      }

      .cls-6 {
        fill: #447dc1;
      }

      .cls-7 {
        fill: #1a1c1e;
      }

      .cls-8 {
        fill: #ed5c35;
      }

      .cls-9 {
        fill: none;
      }

      .cls-10 {
        fill: #5b6066;
      }

      .cls-11 {
        fill: #0c5cbc;
      }
    </style>
  </defs>
  <g id="Layer_1-2" data-name="Layer 1">
    <g>
      <g>
        <path class="cls-4" d="m329.59,0c-101.02,0-183.21,82.19-183.21,183.21s82.18,183.21,183.21,183.21,183.21-82.19,183.21-183.21S430.61,0,329.59,0Z"/>
        <path class="cls-10" d="m329.59,0c-101.02,0-183.21,82.19-183.21,183.21s82.18,183.21,183.21,183.21,183.21-82.19,183.21-183.21S430.61,0,329.59,0Zm0,357.11c-96.04,0-173.89-77.85-173.89-173.89S233.55,9.31,329.59,9.31s173.9,77.85,173.9,173.9-77.86,173.89-173.9,173.89Z"/>
        <g>
          <path class="cls-9" d="m266.64,39.67c19.27-8.47,40.56-13.16,62.95-13.16s43.68,4.69,62.95,13.16c-16.06,16.95-38.33,27.45-62.95,27.45s-46.89-10.5-62.95-27.45Z"/>
          <path class="cls-2" d="m450.31,83.29c-27.67,21.21-71.45,34.91-120.72,34.91s-93.04-13.69-120.71-34.91c10.32-12.46,22.54-23.29,36.21-32.07,19.12,22.85,49.86,37.65,84.5,37.65s65.38-14.81,84.5-37.65c13.67,8.76,25.89,19.6,36.22,32.07Z"/>
          <path class="cls-9" d="m392.54,326.75c-1.04.46-2.1.91-3.16,1.34-.45.19-.89.37-1.34.55-.52.21-1.03.42-1.56.61-.86.34-1.71.66-2.57.98-.8.3-1.61.59-2.42.88-.62.21-1.25.43-1.88.64-1.17.4-2.36.78-3.54,1.15-.29.09-.59.19-.88.27-.88.27-1.77.53-2.65.78-.35.1-.71.2-1.07.3-.72.2-1.43.4-2.15.58-.72.2-1.43.37-2.16.55-.9.22-1.81.44-2.72.64-.42.1-.84.2-1.27.28-2.93.65-5.9,1.21-8.89,1.68-.94.15-1.88.29-2.83.42-.94.14-1.89.26-2.84.37-.59.07-1.18.14-1.77.2-.63.07-1.26.14-1.89.2-.47.05-.94.09-1.41.13-.48.05-.98.08-1.47.12-.68.06-1.37.11-2.06.15-.5.04-1.01.07-1.51.09-.39.03-.78.05-1.18.07-2.56.12-5.13.19-7.72.19s-5.16-.07-7.72-.19c-.4-.02-.79-.04-1.18-.07-.5-.03-1.01-.06-1.51-.09-.69-.04-1.38-.09-2.06-.15-.49-.04-.99-.07-1.47-.12-.47-.04-.94-.08-1.41-.13-3.55-.34-7.06-.8-10.53-1.39-.4-.07-.8-.13-1.2-.2-2.18-.37-4.34-.8-6.49-1.28-.43-.08-.85-.18-1.27-.28-.91-.2-1.82-.42-2.72-.64-.46-.11-.91-.22-1.37-.34-.51-.14-1.02-.27-1.54-.41-.47-.12-.94-.25-1.41-.38-.35-.09-.72-.2-1.07-.3-.79-.22-1.58-.46-2.37-.7-.39-.11-.78-.23-1.16-.35-1.49-.46-2.97-.94-4.43-1.45-.61-.2-1.2-.41-1.81-.63-.81-.28-1.62-.58-2.42-.88-.59-.21-1.17-.44-1.75-.67-.57-.21-1.14-.44-1.7-.67-.28-.12-.57-.23-.85-.34-1.17-.48-2.35-.98-3.51-1.49,16.06-16.95,38.33-27.45,62.95-27.45s46.89,10.5,62.95,27.45Z"/>
          <path class="cls-2" d="m450.31,283.13c-.75.89-1.49,1.78-2.24,2.65-.05.05-.07.08-.11.12-1.08,1.24-2.17,2.46-3.29,3.66-.27.3-.55.6-.83.88-1.78,1.91-3.61,3.77-5.5,5.58-.62.61-1.26,1.2-1.9,1.8-.34.33-.69.64-1.03.96-.74.69-1.49,1.36-2.24,2.02-.62.56-1.26,1.11-1.9,1.65-.05.05-.09.08-.14.12-.75.64-1.52,1.28-2.28,1.91-.59.48-1.18.96-1.79,1.43-.62.5-1.26,1-1.9,1.49-.05.04-.08.07-.13.09-.48.38-.97.75-1.46,1.11-.49.38-.99.75-1.49,1.11-.99.74-1.99,1.45-3.01,2.16-.8.55-1.6,1.1-2.42,1.65-.84.57-1.69,1.12-2.54,1.67-19.12-22.85-49.85-37.65-84.5-37.65s-65.38,14.81-84.5,37.65c-3.31-2.12-6.53-4.37-9.66-6.72-.7-.53-1.41-1.07-2.1-1.61-.46-.34-.9-.7-1.34-1.05-.71-.56-1.41-1.13-2.1-1.7-.52-.43-1.04-.87-1.56-1.3-.32-.27-.64-.54-.96-.82-.42-.35-.83-.72-1.24-1.08-.79-.69-1.58-1.4-2.36-2.11-.34-.32-.69-.63-1.03-.96-1.12-1.02-2.21-2.08-3.29-3.15-.84-.83-1.67-1.67-2.5-2.51-.54-.57-1.09-1.14-1.62-1.71-.28-.3-.55-.59-.83-.88-.57-.61-1.13-1.22-1.68-1.84-.67-.75-1.34-1.51-2-2.27-.66-.76-1.31-1.54-1.96-2.32,27.67-21.22,71.44-34.91,120.71-34.91s93.05,13.7,120.72,34.91Z"/>
          <path class="cls-11" d="m485.92,194.15c-1.83,26.58-10.29,51.35-23.74,72.64-27.75-24.75-76.76-41.17-132.59-41.17s-104.82,16.43-132.58,41.17c-13.45-21.29-21.91-46.06-23.74-72.64h312.64Z"/>
          <path class="cls-11" d="m485.92,172.27H173.27c1.83-26.58,10.29-51.35,23.74-72.64,27.75,24.75,76.76,41.17,132.58,41.17s104.83-16.43,132.59-41.17c13.45,21.29,21.91,46.06,23.74,72.64Z"/>
          <path class="cls-9" d="m266.64,39.67c19.27-8.47,40.56-13.16,62.95-13.16s43.68,4.69,62.95,13.16c-16.06,16.95-38.33,27.45-62.95,27.45s-46.89-10.5-62.95-27.45Z"/>
          <path class="cls-2" d="m450.31,83.29c-27.67,21.21-71.45,34.91-120.72,34.91s-93.04-13.69-120.71-34.91c10.32-12.46,22.54-23.29,36.21-32.07,19.12,22.85,49.86,37.65,84.5,37.65s65.38-14.81,84.5-37.65c13.67,8.76,25.89,19.6,36.22,32.07Z"/>
          <path class="cls-9" d="m266.64,39.67c19.27-8.47,40.56-13.16,62.95-13.16s43.68,4.69,62.95,13.16c-16.06,16.95-38.33,27.45-62.95,27.45s-46.89-10.5-62.95-27.45Z"/>
          <path class="cls-6" d="m450.31,83.29c-27.67,21.21-71.45,34.91-120.72,34.91s-93.04-13.69-120.71-34.91c10.32-12.46,22.54-23.29,36.21-32.07,19.12,22.85,49.86,37.65,84.5,37.65s65.38-14.81,84.5-37.65c13.67,8.76,25.89,19.6,36.22,32.07Z"/>
          <path class="cls-9" d="m392.54,39.67c-16.06,16.95-38.33,27.45-62.95,27.45s-46.89-10.5-62.95-27.45c19.27-8.47,40.56-13.16,62.95-13.16s43.68,4.69,62.95,13.16Z"/>
          <path class="cls-2" d="m392.54,39.67c-16.06,16.95-38.33,27.45-62.95,27.45s-46.89-10.5-62.95-27.45c19.27-8.47,40.56-13.16,62.95-13.16s43.68,4.69,62.95,13.16Z"/>
          <path class="cls-9" d="m392.54,326.75c-1.04.46-2.1.91-3.16,1.34-.45.19-.89.37-1.34.55-.52.21-1.03.42-1.56.61-.86.34-1.71.66-2.57.98-.8.3-1.61.59-2.42.88-.62.21-1.25.43-1.88.64-1.17.4-2.36.78-3.54,1.15-.29.09-.59.19-.88.27-.88.27-1.77.53-2.65.78-.35.1-.71.2-1.07.3-.72.2-1.43.4-2.15.58-.72.2-1.43.37-2.16.55-.9.22-1.81.44-2.72.64-.42.1-.84.2-1.27.28-2.93.65-5.9,1.21-8.89,1.68-.94.15-1.88.29-2.83.42-.94.14-1.89.26-2.84.37-.59.07-1.18.14-1.77.2-.63.07-1.26.14-1.89.2-.47.05-.94.09-1.41.13-.48.05-.98.08-1.47.12-.68.06-1.37.11-2.06.15-.5.04-1.01.07-1.51.09-.39.03-.78.05-1.18.07-2.56.12-5.13.19-7.72.19s-5.16-.07-7.72-.19c-.4-.02-.79-.04-1.18-.07-.5-.03-1.01-.06-1.51-.09-.69-.04-1.38-.09-2.06-.15-.49-.04-.99-.07-1.47-.12-.47-.04-.94-.08-1.41-.13-3.55-.34-7.06-.8-10.53-1.39-.4-.07-.8-.13-1.2-.2-2.18-.37-4.34-.8-6.49-1.28-.43-.08-.85-.18-1.27-.28-.91-.2-1.82-.42-2.72-.64-.46-.11-.91-.22-1.37-.34-.51-.14-1.02-.27-1.54-.41-.47-.12-.94-.25-1.41-.38-.35-.09-.72-.2-1.07-.3-.79-.22-1.58-.46-2.37-.7-.39-.11-.78-.23-1.16-.35-1.49-.46-2.97-.94-4.43-1.45-.61-.2-1.2-.41-1.81-.63-.81-.28-1.62-.58-2.42-.88-.59-.21-1.17-.44-1.75-.67-.57-.21-1.14-.44-1.7-.67-.28-.12-.57-.23-.85-.34-1.17-.48-2.35-.98-3.51-1.49,16.06-16.95,38.33-27.45,62.95-27.45s46.89,10.5,62.95,27.45Z"/>
          <path class="cls-2" d="m450.31,283.13c-.75.89-1.49,1.78-2.24,2.65-.05.05-.07.08-.11.12-1.08,1.24-2.17,2.46-3.29,3.66-.27.3-.55.6-.83.88-1.78,1.91-3.61,3.77-5.5,5.58-.62.61-1.26,1.2-1.9,1.8-.34.33-.69.64-1.03.96-.74.69-1.49,1.36-2.24,2.02-.62.56-1.26,1.11-1.9,1.65-.05.05-.09.08-.14.12-.75.64-1.52,1.28-2.28,1.91-.59.48-1.18.96-1.79,1.43-.62.5-1.26,1-1.9,1.49-.05.04-.08.07-.13.09-.48.38-.97.75-1.46,1.11-.49.38-.99.75-1.49,1.11-.99.74-1.99,1.45-3.01,2.16-.8.55-1.6,1.1-2.42,1.65-.84.57-1.69,1.12-2.54,1.67-19.12-22.85-49.85-37.65-84.5-37.65s-65.38,14.81-84.5,37.65c-3.31-2.12-6.53-4.37-9.66-6.72-.7-.53-1.41-1.07-2.1-1.61-.46-.34-.9-.7-1.34-1.05-.71-.56-1.41-1.13-2.1-1.7-.52-.43-1.04-.87-1.56-1.3-.32-.27-.64-.54-.96-.82-.42-.35-.83-.72-1.24-1.08-.79-.69-1.58-1.4-2.36-2.11-.34-.32-.69-.63-1.03-.96-1.12-1.02-2.21-2.08-3.29-3.15-.84-.83-1.67-1.67-2.5-2.51-.54-.57-1.09-1.14-1.62-1.71-.28-.3-.55-.59-.83-.88-.57-.61-1.13-1.22-1.68-1.84-.67-.75-1.34-1.51-2-2.27-.66-.76-1.31-1.54-1.96-2.32,27.67-21.22,71.44-34.91,120.71-34.91s93.05,13.7,120.72,34.91Z"/>
          <path class="cls-9" d="m392.54,326.75c-1.04.46-2.1.91-3.16,1.34-.45.19-.89.37-1.34.55-.52.21-1.03.42-1.56.61-.86.34-1.71.66-2.57.98-.8.3-1.61.59-2.42.88-.62.21-1.25.43-1.88.64-1.17.4-2.36.78-3.54,1.15-.29.09-.59.19-.88.27-.88.27-1.77.53-2.65.78-.35.1-.71.2-1.07.3-.72.2-1.43.4-2.15.58-.72.2-1.43.37-2.16.55-.9.22-1.81.44-2.72.64-.42.1-.84.2-1.27.28-2.93.65-5.9,1.21-8.89,1.68-.94.15-1.88.29-2.83.42-.94.14-1.89.26-2.84.37-.59.07-1.18.14-1.77.2-.63.07-1.26.14-1.89.2-.47.05-.94.09-1.41.13-.48.05-.98.08-1.47.12-.68.06-1.37.11-2.06.15-.5.04-1.01.07-1.51.09-.39.03-.78.05-1.18.07-2.56.12-5.13.19-7.72.19s-5.16-.07-7.72-.19c-.4-.02-.79-.04-1.18-.07-.5-.03-1.01-.06-1.51-.09-.69-.04-1.38-.09-2.06-.15-.49-.04-.99-.07-1.47-.12-.47-.04-.94-.08-1.41-.13-3.55-.34-7.06-.8-10.53-1.39-.4-.07-.8-.13-1.2-.2-2.18-.37-4.34-.8-6.49-1.28-.43-.08-.85-.18-1.27-.28-.91-.2-1.82-.42-2.72-.64-.46-.11-.91-.22-1.37-.34-.51-.14-1.02-.27-1.54-.41-.47-.12-.94-.25-1.41-.38-.35-.09-.72-.2-1.07-.3-.79-.22-1.58-.46-2.37-.7-.39-.11-.78-.23-1.16-.35-1.49-.46-2.97-.94-4.43-1.45-.61-.2-1.2-.41-1.81-.63-.81-.28-1.62-.58-2.42-.88-.59-.21-1.17-.44-1.75-.67-.57-.21-1.14-.44-1.7-.67-.28-.12-.57-.23-.85-.34-1.17-.48-2.35-.98-3.51-1.49,16.06-16.95,38.33-27.45,62.95-27.45s46.89,10.5,62.95,27.45Z"/>
          <path class="cls-3" d="m450.31,283.13c-.75.89-1.49,1.78-2.24,2.65-.05.05-.07.08-.11.12-1.08,1.24-2.17,2.46-3.29,3.66-.27.3-.55.6-.83.88-1.78,1.91-3.61,3.77-5.5,5.58-.62.61-1.26,1.2-1.9,1.8-.34.33-.69.64-1.03.96-.74.69-1.49,1.36-2.24,2.02-.62.56-1.26,1.11-1.9,1.65-.05.05-.09.08-.14.12-.75.64-1.52,1.28-2.28,1.91-.59.48-1.18.96-1.79,1.43-.62.5-1.26,1-1.9,1.49-.05.04-.08.07-.13.09-.48.38-.97.75-1.46,1.11-.49.38-.99.75-1.49,1.11-.99.74-1.99,1.45-3.01,2.16-.8.55-1.6,1.1-2.42,1.65-.84.57-1.69,1.12-2.54,1.67-19.12-22.85-49.85-37.65-84.5-37.65s-65.38,14.81-84.5,37.65c-3.31-2.12-6.53-4.37-9.66-6.72-.7-.53-1.41-1.07-2.1-1.61-.46-.34-.9-.7-1.34-1.05-.71-.56-1.41-1.13-2.1-1.7-.52-.43-1.04-.87-1.56-1.3-.32-.27-.64-.54-.96-.82-.42-.35-.83-.72-1.24-1.08-.79-.69-1.58-1.4-2.36-2.11-.34-.32-.69-.63-1.03-.96-1.12-1.02-2.21-2.08-3.29-3.15-.84-.83-1.67-1.67-2.5-2.51-.54-.57-1.09-1.14-1.62-1.71-.28-.3-.55-.59-.83-.88-.57-.61-1.13-1.22-1.68-1.84-.67-.75-1.34-1.51-2-2.27-.66-.76-1.31-1.54-1.96-2.32,27.67-21.22,71.44-34.91,120.71-34.91s93.05,13.7,120.72,34.91Z"/>
          <path class="cls-9" d="m392.54,326.75c-1.04.46-2.1.91-3.16,1.34-.45.19-.89.37-1.34.55-.52.21-1.03.42-1.56.61-.86.34-1.71.66-2.57.98-.8.3-1.61.59-2.42.88-.62.21-1.25.43-1.88.64-1.17.4-2.36.78-3.54,1.15-.29.09-.59.19-.88.27-.88.27-1.77.53-2.65.78-.35.1-.71.2-1.07.3-.72.2-1.43.4-2.15.58-.72.2-1.43.37-2.16.55-.9.22-1.81.44-2.72.64-.42.1-.84.2-1.27.28-2.93.65-5.9,1.21-8.89,1.68-.94.15-1.88.29-2.83.42-.94.14-1.89.26-2.84.37-.59.07-1.18.14-1.77.2-.63.07-1.26.14-1.89.2-.47.05-.94.09-1.41.13-.48.05-.98.08-1.47.12-.68.06-1.37.11-2.06.15-.5.04-1.01.07-1.51.09-.39.03-.78.05-1.18.07-2.56.12-5.13.19-7.72.19s-5.16-.07-7.72-.19c-.4-.02-.79-.04-1.18-.07-.5-.03-1.01-.06-1.51-.09-.69-.04-1.38-.09-2.06-.15-.49-.04-.99-.07-1.47-.12-.47-.04-.94-.08-1.41-.13-3.55-.34-7.06-.8-10.53-1.39-.4-.07-.8-.13-1.2-.2-2.18-.37-4.34-.8-6.49-1.28-.43-.08-.85-.18-1.27-.28-.91-.2-1.82-.42-2.72-.64-.46-.11-.91-.22-1.37-.34-.51-.14-1.02-.27-1.54-.41-.47-.12-.94-.25-1.41-.38-.35-.09-.72-.2-1.07-.3-.79-.22-1.58-.46-2.37-.7-.39-.11-.78-.23-1.16-.35-1.49-.46-2.97-.94-4.43-1.45-.61-.2-1.2-.41-1.81-.63-.81-.28-1.62-.58-2.42-.88-.59-.21-1.17-.44-1.75-.67-.57-.21-1.14-.44-1.7-.67-.28-.12-.57-.23-.85-.34-1.17-.48-2.35-.98-3.51-1.49,16.06-16.95,38.33-27.45,62.95-27.45s46.89,10.5,62.95,27.45Z"/>
          <path class="cls-1" d="m392.54,326.75c-1.04.46-2.1.91-3.16,1.34-.45.19-.89.37-1.34.55-.52.21-1.03.42-1.56.61-.86.34-1.71.66-2.57.98-.8.3-1.61.59-2.42.88-.62.21-1.25.43-1.88.64-1.17.4-2.36.78-3.54,1.15-.29.09-.59.19-.88.27-.88.27-1.77.53-2.65.78-.35.1-.71.2-1.07.3-.72.2-1.43.4-2.15.58-.72.2-1.43.37-2.16.55-.9.22-1.81.44-2.72.64-.42.1-.84.2-1.27.28-2.93.65-5.9,1.21-8.89,1.68-.94.15-1.88.29-2.83.42-.94.14-1.89.26-2.84.37-.59.07-1.18.14-1.77.2-.63.07-1.26.14-1.89.2-.47.05-.94.09-1.41.13-.48.05-.98.08-1.47.12-.68.06-1.37.11-2.06.15-.5.04-1.01.07-1.51.09-.39.03-.78.05-1.18.07-2.56.12-5.13.19-7.72.19s-5.16-.07-7.72-.19c-.4-.02-.79-.04-1.18-.07-.5-.03-1.01-.06-1.51-.09-.69-.04-1.38-.09-2.06-.15-.49-.04-.99-.07-1.47-.12-.47-.04-.94-.08-1.41-.13-3.55-.34-7.06-.8-10.53-1.39-.4-.07-.8-.13-1.2-.2-2.18-.37-4.34-.8-6.49-1.28-.43-.08-.85-.18-1.27-.28-.91-.2-1.82-.42-2.72-.64-.46-.11-.91-.22-1.37-.34-.51-.14-1.02-.27-1.54-.41-.47-.12-.94-.25-1.41-.38-.35-.09-.72-.2-1.07-.3-.79-.22-1.58-.46-2.37-.7-.39-.11-.78-.23-1.16-.35-1.49-.46-2.97-.94-4.43-1.45-.61-.2-1.2-.41-1.81-.63-.81-.28-1.62-.58-2.42-.88-.59-.21-1.17-.44-1.75-.67-.57-.21-1.14-.44-1.7-.67-.28-.12-.57-.23-.85-.34-1.17-.48-2.35-.98-3.51-1.49,16.06-16.95,38.33-27.45,62.95-27.45s46.89,10.5,62.95,27.45Z"/>
        </g>
      </g>
      <g>
        <path class="cls-7" d="m0,529.19v-16.14c1.85,1.63,4.06,3.1,6.64,4.4,2.58,1.3,5.3,2.4,8.15,3.3,2.85.9,5.72,1.59,8.6,2.08,2.88.49,5.54.73,7.99.73,8.42,0,14.71-1.56,18.87-4.69,4.16-3.12,6.23-7.62,6.23-13.49,0-3.15-.69-5.89-2.08-8.23-1.39-2.34-3.3-4.47-5.75-6.4-2.44-1.93-5.34-3.78-8.68-5.54-3.34-1.77-6.94-3.63-10.8-5.58-4.08-2.06-7.88-4.16-11.41-6.28-3.53-2.12-6.6-4.45-9.21-7.01-2.61-2.55-4.66-5.45-6.15-8.68-1.49-3.23-2.24-7.02-2.24-11.37,0-5.32,1.17-9.96,3.5-13.9,2.34-3.94,5.41-7.18,9.21-9.74,3.8-2.55,8.14-4.45,13-5.71,4.86-1.25,9.82-1.87,14.87-1.87,11.52,0,19.91,1.39,25.18,4.16v15.4c-6.9-4.78-15.76-7.17-26.57-7.17-2.99,0-5.98.31-8.97.94-2.99.62-5.65,1.64-7.99,3.06-2.34,1.41-4.24,3.23-5.7,5.46-1.47,2.23-2.2,4.94-2.2,8.15,0,2.99.56,5.57,1.67,7.74,1.11,2.17,2.76,4.16,4.93,5.95,2.17,1.79,4.82,3.53,7.95,5.22,3.12,1.68,6.72,3.53,10.8,5.54,4.18,2.07,8.15,4.24,11.9,6.52s7.04,4.81,9.86,7.58c2.82,2.77,5.07,5.84,6.72,9.21,1.66,3.37,2.49,7.23,2.49,11.57,0,5.76-1.13,10.64-3.38,14.63-2.26,3.99-5.3,7.24-9.13,9.74-3.83,2.5-8.25,4.31-13.24,5.42-5,1.11-10.27,1.67-15.81,1.67-1.85,0-4.13-.15-6.85-.45-2.72-.3-5.49-.73-8.31-1.3-2.83-.57-5.5-1.28-8.03-2.12-2.53-.84-4.55-1.78-6.07-2.81Z"/>
        <path class="cls-7" d="m121.87,533.1c-3.15,1.74-7.31,2.61-12.47,2.61-14.62,0-21.92-8.15-21.92-24.45v-49.39h-14.34v-11.41h14.34v-20.37l13.37-4.32v24.69h21.03v11.41h-21.03v47.02c0,5.6.95,9.59,2.85,11.98,1.9,2.39,5.05,3.59,9.45,3.59,3.37,0,6.28-.92,8.72-2.77v11.41Z"/>
        <path class="cls-7" d="m167.09,535.87c-12.33,0-22.18-3.9-29.54-11.7-7.36-7.8-11.04-18.13-11.04-31.01,0-14.02,3.83-24.96,11.49-32.84,7.66-7.88,18.01-11.82,31.05-11.82s22.15,3.83,29.14,11.49c6.98,7.66,10.47,18.28,10.47,31.87s-3.76,23.97-11.29,31.99c-7.53,8.01-17.62,12.02-30.28,12.02Zm.98-76.12c-8.58,0-15.38,2.92-20.37,8.76-5,5.84-7.5,13.89-7.5,24.16s2.53,17.68,7.58,23.39c5.05,5.71,11.82,8.56,20.29,8.56s15.28-2.8,19.93-8.39c4.65-5.6,6.97-13.56,6.97-23.88s-2.32-18.47-6.97-24.12c-4.64-5.65-11.29-8.48-19.93-8.48Z"/>
        <path class="cls-7" d="m277.71,530.09c-6.41,3.86-14.02,5.79-22.82,5.79-11.9,0-21.5-3.87-28.81-11.61-7.31-7.74-10.96-17.78-10.96-30.11,0-13.75,3.94-24.79,11.82-33.13,7.88-8.34,18.39-12.51,31.54-12.51,7.34,0,13.8,1.36,19.4,4.08v13.69c-6.19-4.35-12.82-6.52-19.88-6.52-8.53,0-15.53,3.06-20.99,9.17-5.46,6.11-8.19,14.14-8.19,24.08s2.57,17.5,7.7,23.15c5.13,5.65,12.02,8.48,20.66,8.48,7.28,0,14.13-2.42,20.54-7.25v12.71Z"/>
        <path class="cls-7" d="m361.35,533.92h-18.74l-36.84-40.1h-.33v40.1h-13.37v-123.55h13.37v78.32h.33l35.05-38.22h17.52l-38.71,40.26,41.73,43.19Z"/>
        <path class="cls-11" d="m471.35,533.92h-70.09v-116.87h67.4v21.43h-41.07v26h38.22v21.35h-38.22v26.73h43.76v21.35Z"/>
        <path class="cls-5" d="m483.52,533.92v-95.86h33.96c34.05,0,51.07,15.58,51.07,46.73,0,14.93-4.65,26.85-13.94,35.76-9.29,8.91-21.67,13.37-37.13,13.37h-33.96Zm21.59-78.28v60.77h10.7c9.36,0,16.7-2.81,22.03-8.42,5.32-5.62,7.99-13.26,7.99-22.93,0-9.14-2.64-16.32-7.92-21.56-5.28-5.24-12.69-7.85-22.23-7.85h-10.56Z"/>
        <path class="cls-8" d="m659.19,492.4c0,28.79-13.42,43.19-40.24,43.19s-39.04-14.06-39.04-42.18v-55.35h21.66v55.62c0,15.51,6.06,23.26,18.18,23.26s17.85-7.49,17.85-22.46v-56.42h21.59v54.35Z"/>
      </g>
    </g>
  </g>
</svg>