<svg xmlns="http://www.w3.org/2000/svg" viewBox="0 0 5.4 8.51"><defs><style>.cls-1{fill:#2b3244;}</style></defs><g id="Layer_2" data-name="Layer 2"><g id="BACKGROUND"><path class="cls-1" d="M2.65,4.18A2.07,2.07,0,1,1,4.72,2.11,2.07,2.07,0,0,1,2.65,4.18Zm0-3.9A1.84,1.84,0,1,0,4.48,2.11,1.84,1.84,0,0,0,2.65.28Z"/><path class="cls-1" d="M2.65,4.22A2.11,2.11,0,1,1,4.76,2.11,2.1,2.1,0,0,1,2.65,4.22Zm0-4.13a2,2,0,1,0,2,2A2,2,0,0,0,2.65.09Zm0,3.9A1.88,1.88,0,1,1,4.53,2.11,1.88,1.88,0,0,1,2.65,4Zm0-3.67A1.79,1.79,0,1,0,4.44,2.11,1.79,1.79,0,0,0,2.65.32Z"/><path class="cls-1" d="M5.24,8.47H.16A.12.12,0,0,1,0,8.35V6.6a2.66,2.66,0,0,1,5.31,0V8.35A.11.11,0,0,1,5.24,8.47Zm-5-.23H5.12V6.6a2.42,2.42,0,0,0-4.84,0Z"/><path class="cls-1" d="M5.24,8.51H.16A.16.16,0,0,1,0,8.35V6.6a2.7,2.7,0,0,1,5.4,0V8.35A.16.16,0,0,1,5.24,8.51ZM2.7,4A2.61,2.61,0,0,0,.09,6.6V8.35a.08.08,0,0,0,.07.08H5.24a.08.08,0,0,0,.07-.08V6.6A2.61,2.61,0,0,0,2.7,4ZM5.12,8.28H.28a0,0,0,0,1-.05,0V6.6a2.47,2.47,0,0,1,4.93,0V8.24A0,0,0,0,1,5.12,8.28ZM.32,8.19H5.08V6.6a2.38,2.38,0,0,0-4.76,0Z"/></g></g></svg>