<svg xmlns="http://www.w3.org/2000/svg" viewBox="0 0 6.7 8.66"><defs><style>.cls-1{fill:#2b3244;}</style></defs><g id="Layer_2" data-name="Layer 2"><g id="BACKGROUND"><path class="cls-1" d="M2.35,3.8l-.5,1.55a.11.11,0,0,0,0,.13.12.12,0,0,0,.14,0l1.32-1,1.32,1a.08.08,0,0,0,.07,0,.07.07,0,0,0,.06,0,.11.11,0,0,0,0-.13L4.34,3.8l1.32-1a.11.11,0,0,0-.07-.21H4l-.5-1.55A.12.12,0,0,0,3.35,1a.11.11,0,0,0-.11.08L2.73,2.63H1.1A.12.12,0,0,0,1,2.71a.12.12,0,0,0,0,.13Zm.47-.94a.12.12,0,0,0,.11-.08l.42-1.29.42,1.29a.11.11,0,0,0,.11.08H5.23l-1.09.8a.13.13,0,0,0,0,.13l.42,1.29L3.42,4.29a.12.12,0,0,0-.14,0l-1.1.79L2.6,3.79a.11.11,0,0,0,0-.13l-1.1-.8Z"/><path class="cls-1" d="M2,5.55a.14.14,0,0,1-.09,0,.16.16,0,0,1-.06-.18L2.3,3.82,1,2.88A.16.16,0,0,1,1,2.7a.15.15,0,0,1,.15-.11H2.7l.5-1.52a.16.16,0,0,1,.3,0L4,2.59h1.6a.16.16,0,0,1,.16.11.18.18,0,0,1-.06.18l-1.3.94.5,1.52a.16.16,0,0,1-.06.18.17.17,0,0,1-.19,0L3.35,4.58l-1.3.94A.14.14,0,0,1,2,5.55ZM1.1,2.67A.09.09,0,0,0,1,2.73a.07.07,0,0,0,0,.08l1.32,1s0,0,0,0l-.5,1.56a.07.07,0,0,0,0,.08.06.06,0,0,0,.08,0l1.32-1h.05l1.32,1a.08.08,0,0,0,.09,0,.08.08,0,0,0,0-.08L4.3,3.81a0,0,0,0,1,0,0l1.32-1a.08.08,0,0,0,0-.08.07.07,0,0,0-.07-.06H4s0,0,0,0l-.5-1.55a.07.07,0,0,0-.14,0L2.77,2.64s0,0,0,0ZM4.51,5.13h0l-1.1-.8a.07.07,0,0,0-.09,0l-1.09.8h0a0,0,0,0,1,0,0l.42-1.29a.07.07,0,0,0,0-.08L1.44,2.9a0,0,0,0,1,0,0s0,0,0,0H2.82a.08.08,0,0,0,.07,0l.42-1.29a0,0,0,0,1,.08,0l.42,1.29a.08.08,0,0,0,.07,0H5.23a.05.05,0,0,1,0,0s0,0,0,0l-1.1.8a.08.08,0,0,0,0,.08l.42,1.29s0,0,0,0ZM1.6,2.91l1,.72a.16.16,0,0,1,.06.18L2.27,5l1-.72a.17.17,0,0,1,.19,0l1,.72L4.05,3.81a.16.16,0,0,1,.06-.18l1-.72H3.88a.16.16,0,0,1-.15-.11L3.35,1.64,3,2.8a.16.16,0,0,1-.15.11Z"/><path class="cls-1" d="M6.54,8.62l-.07,0L3.35,6.47.23,8.6a.13.13,0,0,1-.12,0A.12.12,0,0,1,0,8.5V.16A.13.13,0,0,1,.16,0H6.54a.12.12,0,0,1,.11.12V8.5a.11.11,0,0,1-.06.1ZM3.35,6.22a.07.07,0,0,1,.06,0l3,2v-8H.28v8l3-2A.08.08,0,0,1,3.35,6.22Z"/><path class="cls-1" d="M.16,8.66l-.07,0A.15.15,0,0,1,0,8.5V.16A.16.16,0,0,1,.16,0H6.54A.16.16,0,0,1,6.7.16V8.5a.17.17,0,0,1-.09.14.17.17,0,0,1-.17,0L3.35,6.53.25,8.63ZM.16.09A.07.07,0,0,0,.09.16V8.5a.05.05,0,0,0,0,.06s0,0,.07,0L3.32,6.44a0,0,0,0,1,.05,0L6.49,8.56s.06,0,.08,0a.07.07,0,0,0,0-.06V.16A.07.07,0,0,0,6.54.09ZM.28,8.32h0a.05.05,0,0,1,0,0v-8A0,0,0,0,1,.28.23H6.42a0,0,0,0,1,0,.05v8l0,0H6.39l-3-2H3.31l-3,2ZM3.35,6.17a.16.16,0,0,1,.09,0l2.93,2V.32h-6V8.2l2.94-2A.14.14,0,0,1,3.35,6.17Z"/></g></g></svg>