<svg xmlns="http://www.w3.org/2000/svg" viewBox="0 0 10.27 8.59"><defs><style>.cls-1{fill:#2b3244;}</style></defs><g id="Layer_2" data-name="Layer 2"><g id="BACKGROUND"><path class="cls-1" d="M8.87,1.63h0L5.17.58l-3.68,1a.12.12,0,0,1-.14-.09.11.11,0,0,1,.08-.14l3.71-1H5.2l3.7,1A.12.12,0,0,1,9,1.54.13.13,0,0,1,8.87,1.63Z"/><path class="cls-1" d="M1.46,1.67a.13.13,0,0,1-.08,0,.16.16,0,0,1-.07-.09.2.2,0,0,1,0-.13.18.18,0,0,1,.1-.07l3.7-1a.14.14,0,0,1,.09,0L8.92,1.36A.16.16,0,0,1,9,1.43a.2.2,0,0,1,0,.13.18.18,0,0,1-.2.11L5.17.63l-3.66,1ZM5.17.39h0l-3.71,1a.08.08,0,0,0,0,0,.07.07,0,0,0,0,.05.1.1,0,0,0,0,.05,0,0,0,0,0,.05,0l3.68-1h0l3.67,1a.07.07,0,0,0,.09-.05,0,0,0,0,0,0-.05.1.1,0,0,0,0,0l-3.7-1Z"/><path class="cls-1" d="M5.17,2.8h0L1.43,1.66a.11.11,0,0,1-.08-.14.12.12,0,0,1,.15-.08L5.17,2.56,8.84,1.44A.11.11,0,0,1,9,1.52a.11.11,0,0,1-.07.14L5.2,2.79Z"/><path class="cls-1" d="M5.17,2.84h0L1.42,1.71a.16.16,0,0,1-.11-.21.15.15,0,0,1,.2-.1L5.17,2.51,8.83,1.4a.16.16,0,0,1,.2.1.18.18,0,0,1-.11.21L5.21,2.83ZM1.46,1.48a.08.08,0,0,0-.07.05.07.07,0,0,0,.05.09L5.15,2.75h0l3.7-1.13a.07.07,0,0,0,0-.14L5.18,2.6h0L1.48,1.48Z"/><path class="cls-1" d="M5.17,8.54h0L1.42,7.29a.12.12,0,0,1-.07-.11V2.65a.11.11,0,0,1,.11-.11.11.11,0,0,1,.12.11V7.1L5.17,8.3l3.59-1V2.71a.11.11,0,0,1,.11-.12A.12.12,0,0,1,9,2.71V7.37a.12.12,0,0,1-.09.12l-3.7,1Z"/><path class="cls-1" d="M5.17,8.59h0L1.41,7.33a.16.16,0,0,1-.11-.15V2.65a.16.16,0,0,1,.32,0V7.06l3.55,1.2,3.54-1V2.71a.16.16,0,1,1,.32,0V7.37a.15.15,0,0,1-.11.16l-3.71,1Zm-3.71-6a.07.07,0,0,0-.07.07V7.18a.08.08,0,0,0,.05.07l3.7,1.24h.05l3.7-1.06A.07.07,0,0,0,9,7.37V2.71a.08.08,0,0,0-.08-.07.07.07,0,0,0-.07.07V7.29s0,0,0,0l-3.59,1h0L1.57,7.14a.05.05,0,0,1,0,0V2.65A.08.08,0,0,0,1.46,2.58Z"/><path class="cls-1" d="M5.17,8.54a.11.11,0,0,1-.12-.11V2.68a.12.12,0,0,1,.12-.12.12.12,0,0,1,.11.12V8.43A.11.11,0,0,1,5.17,8.54Z"/><path class="cls-1" d="M5.17,8.59A.16.16,0,0,1,5,8.43V2.68a.16.16,0,1,1,.32,0V8.43A.16.16,0,0,1,5.17,8.59Zm0-6a.08.08,0,0,0-.08.07V8.43a.08.08,0,0,0,.08.07.07.07,0,0,0,.07-.07V2.68A.07.07,0,0,0,5.17,2.61Z"/><path class="cls-1" d="M1.59,1.71h0L.26,1.32a.11.11,0,0,1,0-.22L4,.05a.06.06,0,0,1,.06,0L5.2.35a.11.11,0,0,1-.06.22L4.05.28.72,1.21l.9.27a.11.11,0,0,1,.08.14A.13.13,0,0,1,1.59,1.71Z"/><path class="cls-1" d="M1.59,1.75H1.54L.25,1.37a.17.17,0,0,1-.12-.16.16.16,0,0,1,.12-.15L4,0H4.1l1.11.3A.15.15,0,0,1,5.32.5a.16.16,0,0,1-.19.12L4.06.33.88,1.22l.75.22a.15.15,0,0,1,.11.19A.16.16,0,0,1,1.59,1.75ZM4.05.09H4l-3.76,1a.07.07,0,0,0,0,.14l1.3.38a.08.08,0,0,0,.09,0,.07.07,0,0,0,0-.09L.7,1.26a.09.09,0,0,1,0-.05s0,0,0,0L4,.24h0L5.15.53a.07.07,0,0,0,0-.14L4.07.09Z"/><path class="cls-1" d="M8.75,1.71a.12.12,0,0,1-.11-.09.11.11,0,0,1,.08-.14l.9-.27L6.28.28,5.2.57A.12.12,0,0,1,5.05.49.12.12,0,0,1,5.14.35L6.25.05a.06.06,0,0,1,.06,0L10.08,1.1a.12.12,0,0,1,0,.22l-1.3.38Z"/><path class="cls-1" d="M8.75,1.75a.17.17,0,0,1-.16-.12.16.16,0,0,1,.11-.19l.76-.22L6.28.33,5.21.62A.17.17,0,0,1,5,.5.16.16,0,0,1,5.13.31L6.24,0h.08l3.77,1.05a.15.15,0,0,1,.11.15.15.15,0,0,1-.11.16l-1.3.37ZM6.28.24h0l3.34.93s0,0,0,0a.05.05,0,0,1,0,.05l-.9.26a.07.07,0,1,0,0,.14l1.29-.38a.07.07,0,0,0,0-.14L6.3.09h0L5.15.39a.07.07,0,1,0,0,.14L6.27.24Z"/><path class="cls-1" d="M3.85,3.63h0L.12,2.27A.12.12,0,0,1,0,2.17a.12.12,0,0,1,.07-.11l1.43-.65a.11.11,0,0,1,.15.05.12.12,0,0,1-.05.16L.47,2.15,3.84,3.39,5.1,2.74a.12.12,0,0,1,.16,0,.11.11,0,0,1,0,.15L3.9,3.62Z"/><path class="cls-1" d="M3.85,3.68H3.79L.11,2.31A.14.14,0,0,1,0,2.17.15.15,0,0,1,.09,2l1.43-.65a.17.17,0,0,1,.12,0,.16.16,0,0,1,.09.09.15.15,0,0,1-.08.21L.58,2.15,3.84,3.34,5.08,2.7a.16.16,0,0,1,.22.07A.15.15,0,0,1,5.23,3l-1.31.68ZM1.59,1.44h0L.13,2.1a.07.07,0,0,0,0,.07.06.06,0,0,0,.05.06L3.82,3.59h.06l1.31-.67a.07.07,0,0,0,0-.1.07.07,0,0,0-.1,0l-1.26.65h0L.45,2.19a0,0,0,0,1,0,0,.05.05,0,0,1,0,0l1.17-.53a.07.07,0,0,0,0-.1A.07.07,0,0,0,1.59,1.44Z"/><path class="cls-1" d="M6.42,3.63H6.36L5.05,2.94a.11.11,0,1,1,.11-.2l1.27.65L9.8,2.15,8.63,1.62a.12.12,0,0,1-.06-.16.13.13,0,0,1,.16-.05l1.42.65a.11.11,0,0,1,.07.11.1.1,0,0,1-.08.1L6.46,3.63Z"/><path class="cls-1" d="M6.42,3.68l-.08,0L5,3A.15.15,0,0,1,5,2.77a.16.16,0,0,1,.22-.07l1.25.64L9.68,2.15,8.61,1.66a.16.16,0,0,1,.13-.29L10.17,2a.15.15,0,0,1,.1.15.16.16,0,0,1-.11.14L6.47,3.67ZM5.11,2.77a.08.08,0,0,0-.07,0,.08.08,0,0,0,0,.1l1.31.67h.06l3.69-1.36a.06.06,0,0,0,0-.06.08.08,0,0,0,0-.07L8.71,1.45a.08.08,0,0,0-.1,0,.07.07,0,0,0,0,.1l1.17.53,0,0s0,0,0,0L6.44,3.43h0L5.14,2.78Z"/></g></g></svg>