<svg xmlns="http://www.w3.org/2000/svg" viewBox="0 0 8.66 8.59"><defs><style>.cls-1{fill:#2b3244;}</style></defs><g id="Layer_2" data-name="Layer 2"><g id="BACKGROUND"><path class="cls-1" d="M4.33,8.54h0L.13,7.29A.12.12,0,0,1,0,7.18v-6a.12.12,0,0,1,0-.09.12.12,0,0,1,.1,0L4.33,2.22,8.47,1.1a.12.12,0,0,1,.1,0,.12.12,0,0,1,0,.09V7.37a.13.13,0,0,1-.09.12l-4.17,1Zm-4-1.45L4.33,8.3l4.05-1V1.36l-4,1.09H4.3l-4-1.09Z"/><path class="cls-1" d="M4.33,8.59h0L.11,7.33A.16.16,0,0,1,0,7.18v-6a.16.16,0,0,1,.06-.13.14.14,0,0,1,.14,0L4.33,2.17,8.46,1.06a.14.14,0,0,1,.14,0,.16.16,0,0,1,.06.13V7.37a.16.16,0,0,1-.12.16l-4.17,1ZM.16,1.14h0a.09.09,0,0,0,0,.06v6a.08.08,0,0,0,.05.07L4.31,8.5h0l4.17-1a.08.08,0,0,0,.05-.08V1.21a.09.09,0,0,0,0-.06H8.48L4.34,2.26h0L.18,1.14ZM4.33,8.35h0L.26,7.13a0,0,0,0,1,0,0V1.36s0,0,0,0h0l4,1.09h0l4-1.09h0s0,0,0,0V7.28a.07.07,0,0,1,0,0l-4.05,1Zm-4-1.29,4,1.2,4-1V1.42l-4,1.08H4.29l-4-1.08Z"/><path class="cls-1" d="M8.5,1.33h0L4.33.28.19,1.33a.12.12,0,0,1-.14-.09A.11.11,0,0,1,.13,1.1L4.3.05a.06.06,0,0,1,.06,0L8.53,1.1a.11.11,0,0,1,.08.14A.12.12,0,0,1,8.5,1.33Z"/><path class="cls-1" d="M8.5,1.37h0L4.33.33.2,1.37A.17.17,0,0,1,0,1.25a.17.17,0,0,1,0-.12.14.14,0,0,1,.1-.07L4.29,0h.08L8.54,1.06a.17.17,0,0,1,.1.07.13.13,0,0,1,0,.12A.15.15,0,0,1,8.5,1.37ZM4.33.24h0l4.14,1a.07.07,0,0,0,.09-.05.13.13,0,0,0,0-.06l0,0L4.35.09h0l-4.17,1,0,0a.13.13,0,0,0,0,.06.07.07,0,0,0,.09.05l4.14-1Z"/><path class="cls-1" d="M4.33,8.54a.12.12,0,0,1-.12-.11V2.34a.12.12,0,0,1,.24,0V8.43A.12.12,0,0,1,4.33,8.54Z"/><path class="cls-1" d="M4.33,8.59a.16.16,0,0,1-.16-.16V2.34a.16.16,0,0,1,.32,0V8.43A.16.16,0,0,1,4.33,8.59Zm0-6.32a.07.07,0,0,0-.07.07V8.43a.07.07,0,0,0,.14,0V2.34A.07.07,0,0,0,4.33,2.27Z"/><path class="cls-1" d="M6.22,2h0L2.64.8A.12.12,0,0,1,2.56.65.12.12,0,0,1,2.71.58L6.25,1.72a.12.12,0,0,1,.08.15A.12.12,0,0,1,6.22,2Z"/><path class="cls-1" d="M6.22,2h0L2.63.84a.14.14,0,0,1-.1-.08A.16.16,0,0,1,2.72.53L6.27,1.68a.14.14,0,0,1,.09.08.16.16,0,0,1,0,.12A.15.15,0,0,1,6.22,2ZM2.67.61a.06.06,0,0,0-.06.05.06.06,0,0,0,0,.06.08.08,0,0,0,0,0L6.19,1.9a.09.09,0,0,0,.1,0,.07.07,0,0,0,0-.05l0,0L2.7.62Z"/></g></g></svg>