<svg xmlns="http://www.w3.org/2000/svg" viewBox="0 0 7.58 8.69"><defs><style>.cls-1{fill:#2b3244;}</style></defs><g id="Layer_2" data-name="Layer 2"><g id="BACKGROUND"><path class="cls-1" d="M3.31,6.57A3.27,3.27,0,1,1,6.57,3.31,3.27,3.27,0,0,1,3.31,6.57Zm0-6.29a3,3,0,1,0,3,3A3,3,0,0,0,3.31.28Z"/><path class="cls-1" d="M3.31,6.62A3.31,3.31,0,1,1,6.62,3.31,3.31,3.31,0,0,1,3.31,6.62Zm0-6.53A3.22,3.22,0,1,0,6.53,3.31,3.22,3.22,0,0,0,3.31.09Zm0,6.29A3.08,3.08,0,1,1,6.38,3.31,3.07,3.07,0,0,1,3.31,6.38Zm0-6.06a3,3,0,1,0,3,3A3,3,0,0,0,3.31.32Z"/><path class="cls-1" d="M7.42,8.65a.18.18,0,0,1-.09,0L5.06,5.94a.14.14,0,0,1,0-.17.12.12,0,0,1,.17,0L7.51,8.46a.11.11,0,0,1,0,.16A.11.11,0,0,1,7.42,8.65Z"/><path class="cls-1" d="M7.42,8.69a.17.17,0,0,1-.12,0L5,6a.16.16,0,0,1,0-.23.15.15,0,0,1,.22,0L7.54,8.43a.16.16,0,0,1,0,.22A.15.15,0,0,1,7.42,8.69ZM5.15,5.79l-.05,0a.07.07,0,0,0,0,.1L7.37,8.58a.08.08,0,0,0,.1,0,.09.09,0,0,0,0-.11L5.21,5.82A.09.09,0,0,0,5.15,5.79Z"/></g></g></svg>