<svg xmlns="http://www.w3.org/2000/svg" viewBox="0 0 8.68 8.46"><defs><style>.cls-1{fill:#2b3244;}</style></defs><g id="Layer_2" data-name="Layer 2"><g id="BACKGROUND"><path class="cls-1" d="M2,8.42H1.93a.12.12,0,0,1-.07-.11V6.73H.16A.13.13,0,0,1,0,6.61V1A.12.12,0,0,1,.16.84H7.49A.12.12,0,0,1,7.61,1V6.61a.13.13,0,0,1-.12.12H3.87L2.06,8.39A.13.13,0,0,1,2,8.42ZM.28,6.49H2a.11.11,0,0,1,.11.12V8L3.75,6.52a.11.11,0,0,1,.08,0H7.37V1.08H.28Z"/><path class="cls-1" d="M2,8.46H1.91a.16.16,0,0,1-.09-.15V6.77H.16A.16.16,0,0,1,0,6.61V1A.16.16,0,0,1,.16.8H7.49A.16.16,0,0,1,7.65,1V6.61a.16.16,0,0,1-.16.16H3.89L2.09,8.42A.15.15,0,0,1,2,8.46ZM.16.89A.07.07,0,0,0,.09,1V6.61a.07.07,0,0,0,.07.07h1.7a0,0,0,0,1,0,.05V8.3A.08.08,0,0,0,2,8.37a.08.08,0,0,0,.08,0L3.84,6.69H7.49a.07.07,0,0,0,.07-.07V1A.07.07,0,0,0,7.49.89ZM2.09,8.08h0a.05.05,0,0,1,0,0V6.61A.07.07,0,0,0,2,6.54H.28a0,0,0,0,1-.05,0V1.08A0,0,0,0,1,.28,1H7.37a0,0,0,0,1,0,.05V6.49a0,0,0,0,1,0,0H3.83s0,0-.05,0L2.12,8.07ZM.32,6.45H2a.16.16,0,0,1,.16.16V7.94L3.72,6.49a.14.14,0,0,1,.11,0h3.5V1.12h-7Z"/><path class="cls-1" d="M8.52,6.12h-1A.12.12,0,0,1,7.37,6a.12.12,0,0,1,.12-.12H8.4V.28H1.31V1a.13.13,0,0,1-.12.12A.12.12,0,0,1,1.07,1V.16A.12.12,0,0,1,1.19,0H8.52a.12.12,0,0,1,.11.12V6A.11.11,0,0,1,8.52,6.12Z"/><path class="cls-1" d="M8.52,6.17h-1A.16.16,0,0,1,7.33,6a.16.16,0,0,1,.16-.16h.87V.32h-7V1A.16.16,0,1,1,1,1V.16A.16.16,0,0,1,1.19,0H8.52a.16.16,0,0,1,.16.16V6A.16.16,0,0,1,8.52,6.17Zm-1-.24A.08.08,0,0,0,7.42,6a.07.07,0,0,0,.07.07h1A.07.07,0,0,0,8.59,6V.16A.07.07,0,0,0,8.52.09H1.19a.07.07,0,0,0-.07.07V1a.07.07,0,0,0,.14,0V.28A0,0,0,0,1,1.31.23H8.4s0,0,0,.05V5.89a0,0,0,0,1,0,0Z"/><path class="cls-1" d="M6.7,7.82a.11.11,0,0,1-.08,0L5.43,6.7a.12.12,0,0,1,0-.17.11.11,0,0,1,.16,0l1,.91V6.61a.12.12,0,0,1,.12-.12.12.12,0,0,1,.12.12V7.7a.12.12,0,0,1-.07.11Z"/><path class="cls-1" d="M6.7,7.86a.15.15,0,0,1-.11,0L5.4,6.73a.16.16,0,1,1,.22-.24l.92.84V6.61a.16.16,0,0,1,.32,0V7.7a.19.19,0,0,1-.09.15ZM5.51,6.54s0,0,0,0,0,0,0,.05a.08.08,0,0,0,0,0L6.65,7.75a.08.08,0,0,0,.08,0,.08.08,0,0,0,0-.07V6.61a.07.07,0,1,0-.14,0v.82s0,0,0,0a0,0,0,0,1,0,0l-1-.91S5.53,6.54,5.51,6.54Z"/><path class="cls-1" d="M6.41,2.66H1.19a.12.12,0,0,1-.12-.12.12.12,0,0,1,.12-.12H6.41a.13.13,0,0,1,.12.12A.12.12,0,0,1,6.41,2.66Z"/><path class="cls-1" d="M6.41,2.7H1.19a.16.16,0,0,1,0-.32H6.41a.16.16,0,0,1,0,.32ZM1.19,2.47a.07.07,0,0,0,0,.14H6.41a.07.07,0,1,0,0-.14Z"/><path class="cls-1" d="M6.41,3.7H1.19a.11.11,0,0,1-.12-.11.12.12,0,0,1,.12-.12H6.41a.12.12,0,0,1,.12.12A.12.12,0,0,1,6.41,3.7Z"/><path class="cls-1" d="M6.41,3.75H1.19A.16.16,0,0,1,1,3.59a.16.16,0,0,1,.16-.16H6.41a.16.16,0,0,1,.16.16A.16.16,0,0,1,6.41,3.75ZM1.19,3.51a.08.08,0,0,0-.07.08.07.07,0,0,0,.07.07H6.41a.07.07,0,0,0,.07-.07.08.08,0,0,0-.07-.08Z"/><path class="cls-1" d="M3.27,4.75H1.19a.12.12,0,0,1-.12-.12.12.12,0,0,1,.12-.12H3.27a.12.12,0,0,1,.12.12A.12.12,0,0,1,3.27,4.75Z"/><path class="cls-1" d="M3.27,4.79H1.19a.16.16,0,0,1,0-.32H3.27a.16.16,0,1,1,0,.32ZM1.19,4.56a.07.07,0,0,0,0,.14H3.27a.07.07,0,1,0,0-.14Z"/></g></g></svg>