<svg xmlns="http://www.w3.org/2000/svg" viewBox="0 0 8.69 8.73"><defs><style>.cls-1{fill:#2b3244;}</style></defs><g id="Layer_2" data-name="Layer 2"><g id="BACKGROUND"><path class="cls-1" d="M8.53,8.69H2.1A.12.12,0,0,1,2,8.57V5.48a.12.12,0,0,1,.12-.12.11.11,0,0,1,.11.12v3h6.2V.28H2.21V3.43a.11.11,0,0,1-.11.12A.12.12,0,0,1,2,3.43V.16A.12.12,0,0,1,2.1,0H8.53a.12.12,0,0,1,.12.12V8.57A.12.12,0,0,1,8.53,8.69Z"/><path class="cls-1" d="M8.53,8.73H2.1a.17.17,0,0,1-.17-.16V5.48a.17.17,0,1,1,.33,0V8.41H8.37V.32H2.26V3.43a.16.16,0,0,1-.16.16.17.17,0,0,1-.17-.16V.16A.17.17,0,0,1,2.1,0H8.53a.16.16,0,0,1,.16.16V8.57A.16.16,0,0,1,8.53,8.73ZM2.1,5.4A.07.07,0,0,0,2,5.48V8.57a.07.07,0,0,0,.08.07H8.53a.07.07,0,0,0,.07-.07V.16A.07.07,0,0,0,8.53.09H2.1A.07.07,0,0,0,2,.16V3.43a.07.07,0,0,0,.08.07.07.07,0,0,0,.07-.07V.28a0,0,0,0,1,0-.05h6.2a0,0,0,0,1,.05.05V8.45a0,0,0,0,1-.05.05H2.21a0,0,0,0,1,0-.05v-3A.07.07,0,0,0,2.1,5.4Z"/><path class="cls-1" d="M5.16,4.57h-5A.12.12,0,0,1,0,4.45a.12.12,0,0,1,.12-.11h5a.11.11,0,0,1,.12.11A.12.12,0,0,1,5.16,4.57Z"/><path class="cls-1" d="M5.16,4.61h-5a.16.16,0,0,1,0-.32h5a.16.16,0,0,1,0,.32Zm-5-.23a.07.07,0,0,0-.07.07.08.08,0,0,0,.07.08h5a.09.09,0,0,0,.08-.08.08.08,0,0,0-.08-.07Z"/><path class="cls-1" d="M4.1,5.44A.14.14,0,0,1,4,5.39a.14.14,0,0,1,0-.17l1.08-.77L4,3.68a.12.12,0,1,1,.14-.19l1.21.87a.12.12,0,0,1,0,.09.12.12,0,0,1,0,.1l-1.21.86A.11.11,0,0,1,4.1,5.44Z"/><path class="cls-1" d="M4.1,5.48A.17.17,0,0,1,4,5.41a.13.13,0,0,1,0-.12A.17.17,0,0,1,4,5.19l1-.74L4,3.72a.2.2,0,0,1-.06-.11.14.14,0,0,1,0-.12.15.15,0,0,1,.22,0l1.22.86a.17.17,0,0,1,0,.26l-1.22.87Zm0-2a.07.07,0,0,0-.06,0A.07.07,0,0,0,4,3.6s0,0,0,0l1.08.77,0,0a.05.05,0,0,1,0,0l-1.08.77a.05.05,0,0,0,0,0,0,0,0,0,0,0,.05.08.08,0,0,0,.1,0l1.22-.87a.09.09,0,0,0,0-.06.09.09,0,0,0,0-.06L4.14,3.53Z"/></g></g></svg>