<svg xmlns="http://www.w3.org/2000/svg" viewBox="0 0 400.32 147.04"><defs><style>.cls-1,.cls-2{fill:#fff;}.cls-1,.cls-3{stroke:#231f20;stroke-miterlimit:10;}.cls-3{fill:none;}.cls-4{fill:#231f20;}</style></defs><g id="Layer_2" data-name="Layer 2"><g id="Layer_1-2" data-name="Layer 1"><rect class="cls-1" x="133.61" y="0.5" width="133.11" height="40.85" rx="20.43"/><rect class="cls-1" x="266.71" y="105.69" width="133.11" height="40.85" rx="20.43"/><rect class="cls-1" x="0.5" y="105.69" width="133.11" height="40.85" rx="20.43"/><path d="M180.47,20.32c0,2.78-1.69,4.26-3.75,4.26s-3.63-1.66-3.63-4.1,1.58-4.25,3.74-4.25S180.47,17.92,180.47,20.32Zm-6.28.13c0,1.73.94,3.28,2.59,3.28s2.59-1.52,2.59-3.36c0-1.61-.84-3.29-2.58-3.29S174.19,18.68,174.19,20.45Z"/><path d="M181.83,16.47a9.81,9.81,0,0,1,1.9-.17,3.31,3.31,0,0,1,2.22.59,1.71,1.71,0,0,1,.68,1.43,1.91,1.91,0,0,1-1.37,1.77v0a2.08,2.08,0,0,1,1.67,2,2.12,2.12,0,0,1-.69,1.61,4,4,0,0,1-2.79.76,14,14,0,0,1-1.62-.09Zm1,3.32h1c1.09,0,1.74-.59,1.74-1.37,0-.94-.71-1.32-1.77-1.32a4.05,4.05,0,0,0-.93.08Zm0,3.86a4.15,4.15,0,0,0,.88.06c1.08,0,2.08-.4,2.08-1.58s-1-1.56-2.09-1.56h-.87Z"/><path d="M190,16.36H191v5.41c0,2.15-1.05,2.81-2.44,2.81a3.31,3.31,0,0,1-1.12-.19l.15-.85a2.65,2.65,0,0,0,.89.15c.93,0,1.47-.42,1.47-2Z"/><path d="M197,20.66h-3.13v2.92h3.5v.87h-4.55V16.36h4.37v.87h-3.32v2.56H197Z"/><path d="M200.41,17.25H198v-.89h6v.89h-2.47v7.2h-1.05Z"/><path d="M205.88,16.36v8.09h-1V16.36Z"/><path d="M209.48,24.45l-2.65-8.09H208l1.25,4c.35,1.09.65,2.07.87,3h0a29.65,29.65,0,0,1,.92-3l1.36-4h1.12l-2.89,8.09Z"/><path d="M221.31,20.32c0,2.78-1.69,4.26-3.75,4.26s-3.64-1.66-3.64-4.1,1.59-4.25,3.75-4.25S221.31,17.92,221.31,20.32Zm-6.28.13c0,1.73.94,3.28,2.58,3.28s2.59-1.52,2.59-3.36c0-1.61-.84-3.29-2.57-3.29S215,18.68,215,20.45Z"/><path d="M222.53,23.18a3.61,3.61,0,0,0,1.86.52c1.07,0,1.7-.56,1.7-1.38s-.44-1.19-1.53-1.6c-1.32-.46-2.14-1.16-2.14-2.29A2.33,2.33,0,0,1,225,16.24a3.69,3.69,0,0,1,1.78.39l-.29.85A3.08,3.08,0,0,0,225,17.1c-1.11,0-1.53.66-1.53,1.21,0,.75.49,1.12,1.6,1.55,1.38.54,2.07,1.2,2.07,2.38s-.92,2.33-2.83,2.33a4.18,4.18,0,0,1-2.07-.52Z"/><path d="M43.1,121.67a13.29,13.29,0,0,1,2.22-.18,4.62,4.62,0,0,1,3.27,1,3.66,3.66,0,0,1,1.15,2.89,4.31,4.31,0,0,1-1.16,3.14A5,5,0,0,1,45,129.71a17,17,0,0,1-1.9-.09Zm1,7.15a7.83,7.83,0,0,0,1.05.05,3.1,3.1,0,0,0,3.44-3.43c0-1.91-1.07-3.11-3.27-3.11a6.87,6.87,0,0,0-1.22.1Z"/><path d="M55.27,125.85H52.14v2.92h3.5v.87H51.09v-8.08h4.37v.87H52.14V125h3.13Z"/><path d="M62.64,129.38a5.16,5.16,0,0,1-2.13.38,3.77,3.77,0,0,1-4-4.09,4,4,0,0,1,4.22-4.24,4.45,4.45,0,0,1,1.92.35l-.26.86a3.76,3.76,0,0,0-1.62-.34,3,3,0,0,0-3.16,3.34,2.93,2.93,0,0,0,3.1,3.24,4.27,4.27,0,0,0,1.71-.33Z"/><path d="M65,121.56v8.08H64v-8.08Z"/><path d="M66.69,128.37a3.61,3.61,0,0,0,1.86.52c1.07,0,1.7-.56,1.7-1.38s-.44-1.19-1.53-1.6c-1.32-.46-2.14-1.16-2.14-2.29a2.33,2.33,0,0,1,2.62-2.19,3.69,3.69,0,0,1,1.78.39l-.29.86a3,3,0,0,0-1.52-.39c-1.11,0-1.53.66-1.53,1.21,0,.75.49,1.12,1.6,1.55,1.38.54,2.07,1.2,2.07,2.38s-.92,2.33-2.83,2.33a4.18,4.18,0,0,1-2.07-.52Z"/><path d="M79.65,125.52c0,2.77-1.69,4.25-3.75,4.25s-3.63-1.66-3.63-4.1,1.58-4.25,3.74-4.25S79.65,123.11,79.65,125.52Zm-6.28.12c0,1.73.94,3.28,2.59,3.28s2.59-1.52,2.59-3.36c0-1.61-.84-3.29-2.58-3.29S73.37,123.88,73.37,125.64ZM74.46,121c0-.73.3-1.22.82-1.22a1.39,1.39,0,0,1,.71.25,1.41,1.41,0,0,0,.58.21c.18,0,.29-.08.32-.47h.56c0,.76-.26,1.16-.81,1.16a1.61,1.61,0,0,1-.73-.22,1.36,1.36,0,0,0-.57-.23c-.19,0-.28.2-.31.52Z"/><path d="M85.19,125.85H82.06v2.92h3.5v.87H81v-8.08h4.37v.87H82.06V125h3.13Z"/><path d="M86.77,128.37a3.68,3.68,0,0,0,1.87.52c1.07,0,1.69-.56,1.69-1.38s-.43-1.19-1.52-1.6c-1.32-.46-2.14-1.16-2.14-2.29s1-2.19,2.62-2.19a3.69,3.69,0,0,1,1.78.39l-.29.86a3,3,0,0,0-1.53-.39c-1.11,0-1.53.66-1.53,1.21,0,.75.5,1.12,1.61,1.55,1.37.54,2.06,1.2,2.06,2.38s-.91,2.33-2.83,2.33a4.13,4.13,0,0,1-2.06-.52Z"/><path d="M307.35,121.67a10.71,10.71,0,0,1,2-.18,3.29,3.29,0,0,1,2.34.67,2,2,0,0,1,.64,1.53,2.13,2.13,0,0,1-1.53,2.06v0a2.06,2.06,0,0,1,1.19,1.64,14.75,14.75,0,0,0,.62,2.22h-1.08a10.18,10.18,0,0,1-.53-1.94c-.24-1.1-.68-1.53-1.62-1.56h-1v3.5h-1Zm1,3.68h1.06c1.12,0,1.83-.61,1.83-1.54s-.76-1.51-1.86-1.51a4.15,4.15,0,0,0-1,.1Z"/><path d="M318,125.85h-3.13v2.92h3.5v.87h-4.55v-8.08h4.37v.87h-3.32V125H318Z"/><path d="M325.36,129.38a5.16,5.16,0,0,1-2.13.38,3.77,3.77,0,0,1-4-4.09,4,4,0,0,1,4.22-4.24,4.45,4.45,0,0,1,1.92.35l-.26.86a3.76,3.76,0,0,0-1.62-.34,3,3,0,0,0-3.15,3.34,2.92,2.92,0,0,0,3.09,3.24,4.27,4.27,0,0,0,1.71-.33Z"/><path d="M327.72,121.56v4.79c0,1.8.8,2.56,1.89,2.56s2-.79,2-2.56v-4.79h1.05v4.71c0,2.49-1.31,3.5-3.06,3.5s-2.9-.94-2.9-3.45v-4.76Z"/><path d="M334.44,121.67a10.71,10.71,0,0,1,2-.18,3.32,3.32,0,0,1,2.34.67,2,2,0,0,1,.63,1.53,2.13,2.13,0,0,1-1.52,2.06v0a2,2,0,0,1,1.18,1.64,13.26,13.26,0,0,0,.63,2.22h-1.09a11,11,0,0,1-.53-1.94c-.24-1.1-.68-1.53-1.62-1.56h-1v3.5h-1Zm1,3.68h1.07c1.12,0,1.82-.61,1.82-1.54s-.75-1.51-1.85-1.51a4.25,4.25,0,0,0-1,.1Z"/><path d="M340.76,128.37a3.67,3.67,0,0,0,1.86.52c1.07,0,1.7-.56,1.7-1.38s-.44-1.19-1.53-1.6c-1.32-.46-2.14-1.16-2.14-2.29a2.33,2.33,0,0,1,2.62-2.19,3.77,3.77,0,0,1,1.79.39l-.29.86a3,3,0,0,0-1.53-.39c-1.11,0-1.53.66-1.53,1.21,0,.75.49,1.12,1.61,1.55,1.37.54,2.06,1.2,2.06,2.38s-.91,2.33-2.83,2.33a4.21,4.21,0,0,1-2.07-.52Z"/><path d="M353.72,125.52c0,2.77-1.69,4.25-3.75,4.25s-3.63-1.66-3.63-4.1,1.58-4.25,3.74-4.25S353.72,123.11,353.72,125.52Zm-6.28.12c0,1.73.94,3.28,2.59,3.28s2.59-1.52,2.59-3.36c0-1.61-.84-3.29-2.58-3.29S347.44,123.88,347.44,125.64Z"/><path d="M354.94,128.37a3.68,3.68,0,0,0,1.87.52c1.07,0,1.69-.56,1.69-1.38s-.44-1.19-1.53-1.6c-1.32-.46-2.13-1.16-2.13-2.29s1-2.19,2.62-2.19a3.69,3.69,0,0,1,1.78.39l-.29.86a3,3,0,0,0-1.53-.39c-1.11,0-1.53.66-1.53,1.21,0,.75.49,1.12,1.61,1.55,1.37.54,2.06,1.2,2.06,2.38s-.91,2.33-2.83,2.33a4.13,4.13,0,0,1-2.06-.52Z"/><line class="cls-2" x1="155.56" y1="126.12" x2="244.76" y2="126.12"/><line class="cls-3" x1="156.65" y1="126.12" x2="243.67" y2="126.12"/><polygon class="cls-4" points="159.96 130.21 160.64 129.47 157.03 126.12 160.64 122.76 159.96 122.03 155.56 126.12 159.96 130.21"/><polygon class="cls-4" points="240.36 130.21 239.68 129.47 243.29 126.12 239.68 122.76 240.36 122.03 244.75 126.12 240.36 130.21"/><line class="cls-2" x1="283.27" y1="34" x2="333.27" y2="83.99"/><line class="cls-3" x1="284.04" y1="34.77" x2="332.5" y2="83.23"/><polygon class="cls-4" points="283.49 40 284.49 39.97 284.31 35.04 289.24 35.22 289.28 34.22 283.27 34 283.49 40"/><polygon class="cls-4" points="327.26 83.78 327.3 82.78 332.23 82.96 332.05 78.03 333.05 77.99 333.26 83.99 327.26 83.78"/><line class="cls-2" x1="117.04" y1="34" x2="67.05" y2="83.99"/><line class="cls-3" x1="116.28" y1="34.77" x2="67.82" y2="83.23"/><polygon class="cls-4" points="111.04 34.22 111.08 35.22 116.01 35.04 115.83 39.97 116.83 40 117.04 34 111.04 34.22"/><polygon class="cls-4" points="67.27 77.99 68.27 78.03 68.09 82.95 73.02 82.78 73.05 83.78 67.05 83.99 67.27 77.99"/></g></g></svg>