<?xml version="1.0" encoding="UTF-8"?>
<svg id="Layer_2" data-name="Layer 2" xmlns="http://www.w3.org/2000/svg" viewBox="0 0 938.34 118.21">
  <g id="Layer_1-2" data-name="Layer 1">
    <g>
      <path d="m34.81,94.52c-4.1,0-8.06-.33-11.9-.98-3.84-.65-7.45-1.63-10.85-2.94-3.4-1.31-6.45-2.92-9.15-4.84-1.13-.78-1.94-1.74-2.42-2.88-.48-1.13-.61-2.24-.39-3.33.22-1.09.7-2.03,1.44-2.81.74-.79,1.63-1.26,2.68-1.44,1.05-.17,2.18.18,3.4,1.05,4.01,2.7,8.21,4.66,12.62,5.88,4.4,1.22,9.26,1.83,14.58,1.83,7.67,0,13.31-1.39,16.93-4.18,3.62-2.79,5.43-6.45,5.43-10.98,0-3.75-1.31-6.69-3.92-8.82-2.61-2.13-7.02-3.81-13.2-5.03l-13.86-2.88c-8.19-1.74-14.32-4.62-18.37-8.63-4.05-4.01-6.08-9.37-6.08-16.08,0-4.1.83-7.82,2.48-11.18,1.65-3.35,4.01-6.25,7.06-8.69,3.05-2.44,6.65-4.31,10.79-5.62,4.14-1.31,8.74-1.96,13.79-1.96,5.4,0,10.48.74,15.23,2.22,4.75,1.48,9.04,3.66,12.88,6.54,1.05.78,1.74,1.72,2.09,2.81.35,1.09.41,2.16.2,3.2-.22,1.05-.7,1.92-1.44,2.61-.74.7-1.66,1.09-2.75,1.18-1.09.09-2.29-.3-3.6-1.18-3.49-2.44-7.06-4.2-10.72-5.29-3.66-1.09-7.67-1.63-12.03-1.63s-8.3.7-11.57,2.09c-3.27,1.4-5.8,3.33-7.58,5.82-1.79,2.48-2.68,5.38-2.68,8.69,0,4.01,1.22,7.15,3.66,9.41,2.44,2.27,6.54,4.01,12.29,5.23l13.73,2.75c8.71,1.83,15.19,4.64,19.41,8.43,4.23,3.79,6.34,8.87,6.34,15.23,0,4.01-.81,7.63-2.42,10.85-1.61,3.23-3.9,5.99-6.86,8.3-2.96,2.31-6.58,4.1-10.85,5.36-4.27,1.26-9.07,1.9-14.38,1.9Z"/>
      <path d="m113.26,94.52c-6.89,0-12.79-1.33-17.71-3.99-4.93-2.66-8.74-6.45-11.44-11.38-2.7-4.92-4.05-10.74-4.05-17.45s1.33-12.42,3.99-17.39c2.66-4.97,6.32-8.85,10.98-11.64,4.66-2.79,10-4.18,16.02-4.18,4.27,0,8.13.72,11.57,2.16,3.44,1.44,6.38,3.51,8.82,6.21,2.44,2.7,4.29,5.99,5.56,9.87,1.26,3.88,1.9,8.26,1.9,13.14,0,1.4-.42,2.46-1.24,3.2-.83.74-2.03,1.11-3.6,1.11h-44.71v-7.58h41.71l-2.22,1.83c0-4.53-.68-8.39-2.03-11.57-1.35-3.18-3.31-5.6-5.88-7.26-2.57-1.65-5.77-2.48-9.61-2.48-4.18,0-7.76.98-10.72,2.94-2.96,1.96-5.23,4.71-6.8,8.24-1.57,3.53-2.35,7.61-2.35,12.22v.78c0,7.84,1.87,13.77,5.62,17.78,3.75,4.01,9.15,6.01,16.21,6.01,2.79,0,5.64-.35,8.56-1.05,2.92-.7,5.73-1.96,8.43-3.79,1.31-.78,2.5-1.15,3.6-1.11,1.09.04,1.98.39,2.68,1.05.7.65,1.13,1.44,1.31,2.35.17.92.04,1.9-.39,2.94-.44,1.05-1.26,1.96-2.48,2.75-2.88,2.01-6.3,3.55-10.26,4.64-3.97,1.09-7.78,1.63-11.44,1.63Z"/>
      <path d="m142.54,118.19c-1.39.09-2.57-.13-3.53-.65-.96-.52-1.61-1.24-1.96-2.16-.35-.92-.44-1.83-.26-2.75.18-.92.59-1.7,1.24-2.35.65-.65,1.55-1.03,2.68-1.11,4.62-.26,8.02-1.5,10.2-3.73,2.18-2.22,3.27-5.69,3.27-10.39v-60.27c0-2,.52-3.51,1.57-4.51,1.05-1,2.53-1.5,4.45-1.5s3.27.5,4.31,1.5c1.05,1,1.57,2.51,1.57,4.51v59.35c0,5.4-.89,9.83-2.68,13.27-1.79,3.44-4.42,6.03-7.91,7.78-3.49,1.74-7.8,2.75-12.94,3.01Zm17.52-103.28c-2.35,0-4.21-.63-5.56-1.9-1.35-1.26-2.03-2.94-2.03-5.03,0-2.27.67-3.99,2.03-5.16,1.35-1.18,3.2-1.76,5.56-1.76s4.31.59,5.62,1.76c1.31,1.18,1.96,2.9,1.96,5.16,0,2.09-.65,3.77-1.96,5.03-1.31,1.26-3.18,1.9-5.62,1.9Z"/>
      <path d="m205.43,94.52c-4.36,0-8.3-.87-11.83-2.62-3.53-1.74-6.28-4.1-8.24-7.06-1.96-2.96-2.94-6.28-2.94-9.94,0-4.71,1.18-8.41,3.53-11.11,2.35-2.7,6.32-4.64,11.9-5.82,5.58-1.18,13.07-1.77,22.49-1.77h6.15v7.58h-5.88c-6.71,0-12.01.31-15.88.92-3.88.61-6.6,1.68-8.17,3.2-1.57,1.53-2.35,3.64-2.35,6.34,0,3.4,1.2,6.19,3.6,8.37,2.4,2.18,5.69,3.27,9.87,3.27,3.31,0,6.23-.8,8.76-2.42,2.53-1.61,4.53-3.79,6.01-6.54,1.48-2.75,2.22-5.9,2.22-9.48v-15.04c0-5.14-1.05-8.87-3.14-11.18-2.09-2.31-5.62-3.46-10.59-3.46-2.88,0-5.84.39-8.89,1.18-3.05.78-6.23,2.01-9.54,3.66-1.31.61-2.44.81-3.4.59-.96-.22-1.72-.74-2.29-1.57-.57-.83-.87-1.74-.92-2.75-.04-1,.17-1.98.65-2.94.48-.96,1.33-1.65,2.55-2.09,3.83-1.92,7.65-3.29,11.44-4.12,3.79-.83,7.34-1.24,10.66-1.24,5.66,0,10.33.89,13.99,2.68,3.66,1.79,6.41,4.53,8.24,8.24,1.83,3.71,2.75,8.43,2.75,14.19v34.52c0,2.01-.48,3.53-1.44,4.58-.96,1.05-2.35,1.57-4.18,1.57s-3.12-.52-4.12-1.57c-1-1.05-1.5-2.57-1.5-4.58v-9.28h1.18c-.7,3.23-2.01,6.01-3.92,8.37-1.92,2.35-4.29,4.16-7.13,5.43-2.83,1.26-6.04,1.9-9.61,1.9Z"/>
      <path d="m322.3,94.52c-5.75,0-10.68-1.44-14.77-4.31-4.1-2.88-6.84-6.75-8.24-11.64l1.44-1.96v11.5c0,2.01-.5,3.53-1.5,4.58-1,1.05-2.46,1.57-4.38,1.57s-3.27-.52-4.31-1.57-1.57-2.57-1.57-4.58V6.28c0-2,.52-3.51,1.57-4.51,1.05-1,2.48-1.5,4.31-1.5s3.4.5,4.44,1.5c1.05,1,1.57,2.51,1.57,4.51v37.78h-1.44c1.39-4.71,4.14-8.48,8.24-11.31,4.1-2.83,8.98-4.25,14.64-4.25s10.61,1.33,14.84,3.99c4.23,2.66,7.5,6.45,9.81,11.37,2.31,4.92,3.46,10.79,3.46,17.58s-1.18,12.57-3.53,17.58c-2.35,5.01-5.62,8.85-9.81,11.5-4.18,2.66-9.11,3.99-14.77,3.99Zm-2.75-9.41c3.75,0,7.04-.92,9.87-2.75,2.83-1.83,5.03-4.49,6.6-7.97,1.57-3.48,2.35-7.8,2.35-12.94,0-7.67-1.7-13.51-5.1-17.52-3.4-4.01-7.98-6.01-13.73-6.01-3.84,0-7.17.89-10,2.68-2.83,1.79-5.01,4.42-6.54,7.91-1.53,3.49-2.29,7.8-2.29,12.94,0,7.67,1.7,13.53,5.1,17.58,3.4,4.05,7.98,6.08,13.73,6.08Z"/>
      <path d="m395.12,94.52c-6.89,0-12.79-1.33-17.71-3.99-4.93-2.66-8.74-6.45-11.44-11.38-2.7-4.92-4.05-10.74-4.05-17.45s1.33-12.42,3.99-17.39c2.66-4.97,6.32-8.85,10.98-11.64,4.66-2.79,10-4.18,16.02-4.18,4.27,0,8.13.72,11.57,2.16,3.44,1.44,6.38,3.51,8.82,6.21,2.44,2.7,4.29,5.99,5.56,9.87,1.26,3.88,1.9,8.26,1.9,13.14,0,1.4-.42,2.46-1.24,3.2-.83.74-2.03,1.11-3.6,1.11h-44.71v-7.58h41.71l-2.22,1.83c0-4.53-.68-8.39-2.03-11.57-1.35-3.18-3.31-5.6-5.88-7.26-2.57-1.65-5.77-2.48-9.61-2.48-4.18,0-7.76.98-10.72,2.94-2.96,1.96-5.23,4.71-6.8,8.24-1.57,3.53-2.35,7.61-2.35,12.22v.78c0,7.84,1.87,13.77,5.62,17.78,3.75,4.01,9.15,6.01,16.21,6.01,2.79,0,5.64-.35,8.56-1.05,2.92-.7,5.73-1.96,8.43-3.79,1.31-.78,2.5-1.15,3.6-1.11,1.09.04,1.98.39,2.68,1.05.7.65,1.13,1.44,1.31,2.35.17.92.04,1.9-.39,2.94-.44,1.05-1.26,1.96-2.48,2.75-2.88,2.01-6.3,3.55-10.26,4.64-3.97,1.09-7.78,1.63-11.44,1.63Z"/>
      <path d="m441.67,94.26c-1.83,0-3.27-.52-4.31-1.57s-1.57-2.57-1.57-4.58v-53.34c0-2,.52-3.51,1.57-4.51,1.05-1,2.48-1.5,4.31-1.5s3.25.5,4.25,1.5c1,1,1.5,2.51,1.5,4.51v11.11l-1.44-2.35c1.65-4.79,4.33-8.5,8.04-11.11,3.7-2.61,8.13-3.92,13.27-3.92,5.4,0,9.76,1.29,13.07,3.86,3.31,2.57,5.53,6.47,6.67,11.7h-1.83c1.57-4.79,4.38-8.58,8.43-11.37,4.05-2.79,8.78-4.18,14.19-4.18,4.79,0,8.74.94,11.83,2.81,3.09,1.88,5.43,4.66,6.99,8.37,1.57,3.71,2.35,8.43,2.35,14.19v34.25c0,2.01-.52,3.53-1.57,4.58s-2.48,1.57-4.31,1.57-3.4-.52-4.44-1.57-1.57-2.57-1.57-4.58v-33.73c0-5.58-.96-9.67-2.88-12.29-1.92-2.61-5.14-3.92-9.67-3.92-4.97,0-8.91,1.72-11.83,5.16-2.92,3.44-4.38,8.17-4.38,14.19v30.59c0,2.01-.5,3.53-1.5,4.58-1,1.05-2.46,1.57-4.38,1.57s-3.4-.52-4.44-1.57-1.57-2.57-1.57-4.58v-33.73c0-5.58-.96-9.67-2.88-12.29-1.92-2.61-5.14-3.92-9.67-3.92-4.97,0-8.91,1.72-11.83,5.16-2.92,3.44-4.38,8.17-4.38,14.19v30.59c0,4.1-2.01,6.14-6.01,6.14Z"/>
      <path d="m551.88,63.41c-1.4,0-2.57-.48-3.53-1.44-.96-.96-1.44-2.13-1.44-3.53s.48-2.55,1.44-3.46c.96-.92,2.13-1.37,3.53-1.37h29.15c1.31,0,2.46.46,3.46,1.37,1,.92,1.5,2.07,1.5,3.46s-.5,2.57-1.5,3.53c-1,.96-2.16,1.44-3.46,1.44h-29.15Z"/>
      <path d="m625.61,94.26c-1.66,0-3.09-.44-4.31-1.31-1.22-.87-2.27-2.26-3.14-4.18l-22.23-51.77c-.61-1.48-.83-2.83-.65-4.05.17-1.22.76-2.22,1.76-3.01,1-.78,2.37-1.18,4.12-1.18,1.48,0,2.66.35,3.53,1.05.87.7,1.7,1.92,2.48,3.66l20.53,50.6h-3.66l21.05-50.6c.7-1.74,1.5-2.96,2.42-3.66.92-.7,2.2-1.05,3.86-1.05,1.48,0,2.63.39,3.46,1.18.83.78,1.33,1.79,1.5,3.01.17,1.22-.09,2.53-.78,3.92l-22.36,51.9c-.78,1.92-1.81,3.31-3.07,4.18-1.26.87-2.77,1.31-4.51,1.31Z"/>
      <path d="m675.03,14.9c-2.35,0-4.21-.63-5.56-1.9-1.35-1.26-2.03-2.94-2.03-5.03,0-2.27.67-3.99,2.03-5.16,1.35-1.18,3.2-1.76,5.56-1.76,2.53,0,4.42.59,5.69,1.76,1.26,1.18,1.9,2.9,1.9,5.16,0,2.09-.63,3.77-1.9,5.03-1.26,1.26-3.16,1.9-5.69,1.9Zm0,79.1c-1.83,0-3.27-.57-4.31-1.7s-1.57-2.7-1.57-4.71v-52.16c0-2.09.52-3.68,1.57-4.77,1.05-1.09,2.48-1.63,4.31-1.63s3.4.55,4.45,1.63c1.05,1.09,1.57,2.68,1.57,4.77v52.16c0,2.01-.5,3.58-1.5,4.71-1,1.13-2.51,1.7-4.51,1.7Z"/>
      <path d="m706.01,94.26c-1.83,0-3.27-.52-4.31-1.57s-1.57-2.57-1.57-4.58v-53.34c0-2,.52-3.51,1.57-4.51,1.05-1,2.48-1.5,4.31-1.5s3.25.5,4.25,1.5c1,1,1.5,2.51,1.5,4.51v10.72l-1.44-1.96c1.83-4.97,4.82-8.71,8.96-11.24,4.14-2.53,8.87-3.79,14.18-3.79s9.37.92,12.68,2.75c3.31,1.83,5.8,4.62,7.45,8.37,1.66,3.75,2.48,8.5,2.48,14.25v34.25c0,2.01-.5,3.53-1.5,4.58-1,1.05-2.46,1.57-4.38,1.57s-3.4-.52-4.45-1.57-1.57-2.57-1.57-4.58v-33.6c0-5.66-1.09-9.81-3.27-12.42-2.18-2.61-5.67-3.92-10.46-3.92-5.58,0-10.05,1.72-13.4,5.16-3.36,3.44-5.03,8.08-5.03,13.92v30.85c0,4.1-2.01,6.14-6.01,6.14Z"/>
      <path d="m799.23,94.52c-5.58,0-10.48-1.33-14.71-3.99-4.23-2.66-7.52-6.49-9.87-11.5-2.35-5.01-3.53-10.87-3.53-17.58s1.15-12.66,3.46-17.58c2.31-4.92,5.58-8.71,9.81-11.37,4.23-2.66,9.17-3.99,14.84-3.99s10.54,1.42,14.64,4.25c4.1,2.83,6.84,6.6,8.24,11.31h-1.44V6.28c0-2,.5-3.51,1.5-4.51,1-1,2.46-1.5,4.38-1.5s3.4.5,4.45,1.5c1.05,1,1.57,2.51,1.57,4.51v81.84c0,2.01-.52,3.53-1.57,4.58s-2.53,1.57-4.45,1.57-3.27-.52-4.31-1.57-1.57-2.57-1.57-4.58v-11.9l1.44,2.35c-1.31,4.88-4.03,8.76-8.17,11.64-4.14,2.88-9.04,4.31-14.71,4.31Zm2.75-9.41c3.83,0,7.17-.92,10-2.75,2.83-1.83,5.01-4.49,6.54-7.97,1.52-3.48,2.29-7.8,2.29-12.94,0-7.67-1.7-13.51-5.1-17.52-3.4-4.01-7.97-6.01-13.73-6.01-3.75,0-7.04.89-9.87,2.68-2.83,1.79-5.03,4.42-6.6,7.91-1.57,3.49-2.35,7.8-2.35,12.94,0,7.67,1.72,13.53,5.16,17.58,3.44,4.05,8,6.08,13.66,6.08Z"/>
      <path d="m878.72,94.52c-6.28,0-11.72-1.35-16.34-4.05-4.62-2.7-8.19-6.54-10.72-11.5-2.53-4.97-3.79-10.81-3.79-17.52,0-5.05.72-9.61,2.16-13.66,1.44-4.05,3.51-7.52,6.21-10.39,2.7-2.88,5.95-5.08,9.74-6.6,3.79-1.52,8.04-2.29,12.75-2.29,6.28,0,11.72,1.35,16.34,4.05,4.62,2.7,8.19,6.52,10.72,11.44,2.53,4.93,3.79,10.74,3.79,17.45,0,5.06-.72,9.63-2.16,13.73-1.44,4.1-3.51,7.58-6.21,10.46-2.7,2.88-5.95,5.08-9.74,6.6-3.79,1.52-8.04,2.29-12.75,2.29Zm0-9.41c3.83,0,7.17-.92,10-2.75,2.83-1.83,5.01-4.49,6.54-7.97,1.52-3.48,2.29-7.8,2.29-12.94,0-7.67-1.7-13.51-5.1-17.52-3.4-4.01-7.97-6.01-13.73-6.01-3.75,0-7.04.89-9.87,2.68-2.83,1.79-5.03,4.42-6.6,7.91-1.57,3.49-2.35,7.8-2.35,12.94,0,7.67,1.72,13.53,5.16,17.58,3.44,4.05,8,6.08,13.66,6.08Z"/>
      <path d="m930.62,93.87c-2.27,0-4.14-.74-5.62-2.22-1.48-1.48-2.22-3.35-2.22-5.62s.74-4.1,2.22-5.49c1.48-1.39,3.35-2.09,5.62-2.09,2.44,0,4.33.7,5.69,2.09,1.35,1.4,2.03,3.23,2.03,5.49s-.68,4.14-2.03,5.62c-1.35,1.48-3.25,2.22-5.69,2.22Zm0-24.71c-1.13,0-2.07-.37-2.81-1.11-.74-.74-1.16-1.9-1.24-3.46l-2.88-56.61c-.18-2.35.35-4.23,1.57-5.62,1.22-1.39,3.01-2.09,5.36-2.09s4.01.7,5.23,2.09c1.22,1.4,1.74,3.27,1.57,5.62l-2.88,56.61c-.09,1.57-.48,2.73-1.18,3.46-.7.74-1.61,1.11-2.75,1.11Z"/>
    </g>
  </g>
</svg>